<svg width="482" height="301" xmlns="http://www.w3.org/2000/svg" xmlns:xlink="http://www.w3.org/1999/xlink" preserveAspectRatio="xMidYMid meet">
 <defs>
  <path id="auJzznlOf" d="m581,-1c0,0 0,0 0,0c0,241.2 0,375.2 0,402c0,0 0,0 0,0c-349.2,0 -543.2,0 -582,0c0,0 0,0 0,0c0,-241.2 0,-375.2 0,-402c0,0 0,0 0,0c349.2,0 543.2,0 582,0z"/>
  <path id="a4dHTW274V" d="m491,314.25c-0.13,-18.05 -0.21,-28.08 -0.22,-30.09c-0.02,-4.28 -3.5,-7.75 -7.78,-7.76c-30.13,-0.01 -180.8,-0.05 -452,-0.13l1.35,-1.34c-0.11,19.24 -0.17,29.93 -0.18,32.07c0,4.32 3.5,7.82 7.82,7.82c0,0 0.01,0 0.01,0c70.28,0 148.47,-0.05 218.14,-0.13c68.08,-0.07 149.3,-0.19 217.38,-0.32c0.01,0.01 0.07,0.05 0.17,0.12"/>
  <path id="b2GITUo9DH" d="m31,276.27l1.35,-1.34c-0.11,19.24 -0.17,29.93 -0.18,32.07c0,4.32 3.5,7.82 7.82,7.82c0,0 0.01,0 0.01,0c70.28,0 148.47,-0.05 218.14,-0.13c68.08,-0.07 149.3,-0.19 217.38,-0.32c0.01,0.01 0.07,0.05 0.17,0.12"/>
  <path id="dUO0zxvpE" d="m475.44,244.21c10.42,0 15.63,5.21 15.63,15.63c0,0.28 0,0.43 0,0.46c0,10.42 -5.21,15.63 -15.63,15.63c-253.84,0 -394.86,0 -423.06,0c-10.42,0 -15.63,-5.21 -15.63,-15.63c0,-0.28 0,-0.43 0,-0.46c0,-10.42 5.21,-15.63 15.63,-15.63c253.84,0 394.86,0 423.06,0z"/>
  <path id="bbZCGQCOXU" d="m69.11,219.79c-12.73,7.06 -14.59,6.51 -19.14,10.76c-4.55,4.25 -8.89,10.44 -7.24,13c0.79,1.23 2.5,0.82 7.2,1.68c4.26,0.77 6.07,1.68 9.69,2.79c5.57,1.7 10.06,2.22 17.45,3.09c4.17,0.48 19.81,2.14 61.79,0.42c8.65,-0.14 17.24,-1.52 25.5,-4.1c2.92,-0.95 5.8,-2.05 8.6,-3.31c-2.4,-3.94 -5.39,-7.5 -8.85,-10.55c-7.88,-6.91 -20.22,-9.63 -44.57,-14.78c-18.44,-3.91 -9.59,-1 -24.1,-3.94c-5.26,-1.08 -9.35,-2.06 -14.68,-0.85c-3.53,0.78 -4.5,1.82 -11.65,5.79z"/>
  <path id="a3csUTnh9g" d="m476.25,276c8.96,-0.65 15.7,-8.44 15.05,-17.4c-0.5,-7 -5.43,-12.88 -12.23,-14.6c-7.45,0.01 -44.7,0.09 -111.76,0.22c65.36,19.07 101.68,29.66 108.94,31.78z"/>
  <path id="b2pZaechuU" d="m75.54,192.14c7.37,0 11.05,3.68 11.05,11.05c0,79.56 0,123.76 0,132.6c0,7.37 -3.68,11.05 -11.05,11.05c0,0 0,0 0,0c-7.37,0 -11.05,-3.68 -11.05,-11.05c0,-79.56 0,-123.76 0,-132.6c0,-7.37 3.68,-11.05 11.05,-11.05c0,0 0,0 0,0z"/>
  <path id="a1F0t8xAsx" d="m77.63,192.14c7.37,0 11.05,3.68 11.05,11.05c0,79.56 0,123.76 0,132.6c0,7.37 -3.68,11.05 -11.05,11.05c0,0 0,0 0,0c-7.37,0 -11.05,-3.68 -11.05,-11.05c0,-79.56 0,-123.76 0,-132.6c0,-7.37 3.68,-11.05 11.05,-11.05c0,0 0,0 0,0z"/>
  <path id="bOxD4jrqb" d="m409.28,309.06c6.25,0 9.37,3.12 9.37,9.37c0,15.27 0,23.75 0,25.45c0,6.25 -3.12,9.37 -9.37,9.37c0,0 0,0 0,0c-6.25,0 -9.37,-3.12 -9.37,-9.37c0,-15.27 0,-23.75 0,-25.45c0,-6.25 3.12,-9.37 9.37,-9.37c0,0 0,0 0,0z"/>
  <path id="diyclxcBx" d="m411.05,309.06c6.25,0 9.37,3.12 9.37,9.37c0,15.27 0,23.75 0,25.45c0,6.25 -3.12,9.37 -9.37,9.37c0,0 0,0 0,0c-6.25,0 -9.37,-3.12 -9.37,-9.37c0,-15.27 0,-23.75 0,-25.45c0,-6.25 3.12,-9.37 9.37,-9.37c0,0 0,0 0,0z"/>
  <path id="b1zNH2uxTr" d="m64.41,202.5l-28.1,12.5l0,66l28,-3.63l0.1,-74.87z"/>
  <path id="bhNmL8if2" d="m65.72,203.57l-26.8,11.43l0,66l28,-3.63l-1.2,-73.8z"/>
  <path id="c2U1ZoJZgs" d="m260.74,314.69c-69.66,0.08 -147.86,0.12 -218.14,0.13c-4.32,0 -7.82,-3.5 -7.82,-7.82c0.01,-2.14 0.06,-12.82 0.15,-32.05l-1.35,1.34c271.2,0.08 421.87,0.12 452,0.13c4.29,0 7.78,3.47 7.81,7.76c0.07,10 0.15,20.03 0.22,30.09l-15.49,0.1c-99.53,0.17 -171.99,0.27 -217.38,0.32z"/>
  <path id="d4TcIgBIE" d="m478.05,244.21c10.42,0 15.63,5.21 15.63,15.63c0,0.28 0,0.43 0,0.46c0,10.42 -5.21,15.63 -15.63,15.63c-253.84,0 -394.86,0 -423.06,0c-10.42,0 -15.63,-5.21 -15.63,-15.63c0,-0.28 0,-0.43 0,-0.46c0,-10.42 5.21,-15.63 15.63,-15.63c253.84,0 394.86,0 423.06,0z"/>
  <path id="byVs3ur7i" d="m71.72,219.79c-12.72,7.06 -14.58,6.51 -19.14,10.76c-4.41,4.12 -8.88,10.44 -7.24,13c0.8,1.23 2.5,0.82 7.2,1.68c4.27,0.77 6.07,1.68 9.7,2.79c5.56,1.7 10.05,2.22 17.44,3.09c4.17,0.48 19.81,2.14 61.79,0.42c8.65,-0.14 17.24,-1.52 25.5,-4.1c2.93,-0.94 5.8,-2.05 8.6,-3.31c-2.4,-3.94 -5.38,-7.5 -8.84,-10.55c-7.89,-6.91 -20.23,-9.63 -44.58,-14.78c-18.44,-3.91 -9.58,-1 -24.1,-3.94c-5.26,-1.08 -9.35,-2.06 -14.68,-0.85c-3.53,0.78 -4.5,1.82 -11.65,5.79z"/>
  <path id="b1kCx9Mf4b" d="m28.73,204.56c6.79,0 10.18,3.39 10.18,10.18c0,106.22 0,165.23 0,177.03c0,6.79 -3.39,10.18 -10.18,10.18c-1.48,0 -2.31,0 -2.47,0c-6.79,0 -10.18,-3.39 -10.18,-10.18c0,-106.22 0,-165.23 0,-177.03c0,-6.79 3.39,-10.18 10.18,-10.18c1.48,0 2.31,0 2.47,0z"/>
  <path id="alpDOTF2F" d="m478.86,276c8.96,-0.64 15.71,-8.43 15.06,-17.39c-0.5,-7 -5.43,-12.89 -12.23,-14.61c-7.45,0.01 -44.71,0.09 -111.77,0.22c65.36,19.07 101.68,29.66 108.94,31.78z"/>
  <path id="d1pugQ4nN1" d="m465.48,245.58c0.64,0.9 0.99,1.44 1.66,1.58c2.74,0.54 5.71,-6.75 10.25,-15.52c9,-17.41 13.95,-20.65 12.63,-26.27c-0.82,-3.49 -3.53,-6.59 -6.39,-7.28c-0.77,-0.19 -3.38,-0.65 -7.46,2.91c-7.12,6.23 -5.35,14.38 -12.97,24.14c-3.85,4.95 -6.51,5.63 -6.57,8.6c-0.06,3.25 3.08,3.65 8.85,11.84z"/>
  <path id="bhvrFaRAS" d="m451.35,242.94c0.74,0.82 1.15,1.33 1.94,1.45c3.2,0.5 6.68,-6.22 11.98,-14.32c10.52,-16.05 16.32,-19.05 14.78,-24.28c-0.96,-3.22 -4.13,-6.07 -7.48,-6.72c-0.87,-0.16 -3.94,-0.6 -8.72,2.69c-8.34,5.75 -6.27,13.27 -15.16,22.26c-4.49,4.66 -7.6,5.3 -7.69,7.99c-0.07,2.98 3.6,3.36 10.35,10.93z"/>
  <path id="a7Mmz2jgdb" d="m146.46,218.46c-0.9,4.57 -2.96,8.83 -6,12.36c-1.34,1.5 -2.86,2.83 -4.54,3.94c-7.78,5.4 -16.66,31.95 -12.33,43.49c8.58,22.88 73.69,-6.12 167.5,10c10.21,1.76 48.27,9.57 93.36,31.51c27,13.14 52.38,29.37 75.63,48.37c-0.48,-69.75 0.69,-98.29 2.45,-106.27c0.06,-0.28 0.38,-1.7 0.74,-3.64c1.48,-8.13 2.01,-16.41 1.57,-24.67c-0.56,-11.15 -3.1,-22.1 -7.49,-32.36c-7.87,-16.66 -41.74,-31.39 -176.06,-16.37c-34.4,3.89 -80.35,10.25 -134.37,21.32c0.62,4.1 0.46,8.28 -0.46,12.32z"/>
  <path id="a395xWTuLk" d="m111.02,233.7c3,1.57 9.87,5.1 18.6,3.46c5.27,-0.9 10.08,-3.52 13.7,-7.45c1.11,-1.24 6.28,-7.24 6,-15.81c-0.27,-8.92 -6.24,-14.76 -10.79,-19.2c-4.11,-4 -7.77,-7.6 -13,-8.58c-13.43,-2.53 -32.36,12.75 -30.64,28.15c1.28,11.56 13.61,18.09 16.13,19.43z"/>
  <path id="n3RX7toIF" d="m90.24,218.54c1.1,2.85 4.43,5.92 11.1,12.07c6,5.57 9,8.36 10.39,7.58c3.57,-2.07 -11.17,-24.69 -3,-34.93c3,-3.72 6.45,-2.67 11.07,-8.46c1.25,-1.58 6.79,-8.54 4.16,-14.11c-1.47,-3.1 -4.8,-4.34 -6,-4.71c-8.17,-2.42 -16.18,6.11 -17.26,7.3c-2.7,2.95 -3.86,5.62 -5.84,10.47c-4.39,10.72 -7.3,17.84 -4.62,24.79z"/>
  <path id="c2cF8q7DJ" d="m150.48,159.17c4,1.55 7.93,2.77 12.31,2.51c-0.69,-0.91 -6.23,-8.17 -6.92,-9.08c0.4,-1 -1.09,0.24 -1.58,0.42c-1.26,0.48 -2.54,0.93 -3.81,1.39c-0.85,0.31 -7.63,2.77 -8.48,3.08c-5.07,1.85 -7.05,7.85 -3.16,12c2.84,3 5.2,2.68 8.82,3.62c2.72,0.7 4.88,2.9 7.57,3.92c5.55,2.12 12.64,0.8 15.41,-5c4,-8.28 -8.37,-15.56 -12.38,-7.24c2.24,-0.55 2.84,-0.95 1.79,-1.21c-0.33,-0.25 -0.51,-0.38 -0.55,-0.41c-0.57,-1 -3.23,-2.11 -4.28,-2.63c-1.47,-0.74 -3.04,-1.25 -4.67,-1.51c-0.74,-0.11 -1.48,-0.19 -2.23,-0.26c-1.11,-0.12 -0.89,0 0.66,0.54c-0.32,1.2 -2.84,10.8 -3.16,12c8.91,-3.24 20.1,-5.14 23.88,-14.9c1.64,-4.24 -2.58,-9.34 -6.91,-9.08c-5.47,0.33 -10.38,-3.27 -15.77,-4c-5.39,-0.73 -10.42,0.55 -14.46,4.35c-6.74,6.34 3.42,16.46 10.14,10.14c0,0 0,0.01 0,0.03c4,0.43 6.59,0.87 7.78,1.32z"/>
  <path id="c2V9hjtgO" d="m151.43,155.72c3.76,1.43 7.28,2.62 11.36,2.37c-0.35,-0.45 -3.11,-4.08 -3.46,-4.53c-1,2.57 -5.62,3.49 -7.89,4.31c-0.84,0.31 -7.6,2.82 -8.44,3.13c-1.92,0.57 -3.02,2.59 -2.45,4.51c0.17,0.56 0.47,1.07 0.87,1.49c1.9,2 3.69,2.11 6.28,2.57c3.4,0.61 5.43,2.79 8.52,4.05c4.1,1.69 9.29,1 11.37,-3.31c2,-4.14 -4.19,-7.78 -6.19,-3.62c-1.13,2.34 -6.83,-2.44 -8,-3c-1.55,-0.73 -6,-0.81 -7,-1.79c-0.16,0.6 -1.43,5.4 -1.59,6c7.29,-2.64 18.26,-4.31 21.38,-12.4c0.82,-2.11 -1.29,-4.66 -3.45,-4.54c-9.68,0.58 -18.82,-9 -27.7,-0.67c-3.37,3.17 1.71,8.23 5.07,5.07c0,0 0.02,-0.02 0.05,-0.04c5.24,-0.61 9,-0.47 11.27,0.4z"/>
  <path id="a6lUIAFQOs" d="m175.19,135.72c3.15,1.68 6.62,2.64 10.18,2.83c-0.56,-0.97 -5.02,-8.74 -5.58,-9.71c-0.52,1 -3.17,1.26 -4.22,1.54c-0.77,0.2 -6.91,1.8 -7.68,2c-5.14,1.35 -5.71,7.13 -2.85,10.78c1.94,2.48 4.12,2.33 6.75,3.33c2,0.77 3.49,2.6 5.46,3.59c5,2.52 11.06,1.39 14,-3.52c4.28,-7.14 -6.87,-13.64 -11.14,-6.51c3.56,-5.95 3.75,0.07 2.33,-1.9c-0.92,-0.95 -1.98,-1.76 -3.13,-2.41c-1.11,-0.7 -2.32,-1.24 -3.59,-1.6c-0.7,-0.19 -2.26,-1 -1.56,-0.1c-0.28,1.08 -2.56,9.7 -2.84,10.78c6.64,-1.75 16.2,-2.58 19.62,-9.48c2.18,-4.41 -0.47,-9.55 -5.57,-9.71c-4.13,-0.13 -7.79,-3.55 -11.86,-4.36c-4.45,-1.04 -9.13,0.07 -12.64,3c-2.74,2.15 -2.25,6.88 0,9.13c2.71,2.71 6.37,2.15 9.13,0c0,0 0,0.02 0,0.06c2.33,0.95 4.06,1.7 5.19,2.26z"/>
  <path id="b3y9C3vK6i" d="m176.99,132.63c2.59,1.37 5.44,2.17 8.37,2.34c-0.25,-0.43 -2.23,-3.89 -2.48,-4.32c-1.14,2.3 -4.11,2.59 -6.37,3.18c-0.77,0.2 -6.91,1.8 -7.68,2c-2.28,0.61 -2.54,3.18 -1.27,4.8c1.48,1.88 3.07,1.75 5.17,2.4c2.48,0.78 4,2.86 6.32,4c3.27,1.57 7.17,1 9.1,-2.24c1.93,-3.24 -3.06,-6.06 -5,-2.89c-0.88,1.47 -4.81,-2.47 -5.7,-3c-1.46,-0.9 -4.9,-1 -5.87,-2.26c-0.13,0.48 -1.14,4.32 -1.27,4.8c5.56,-1.47 14.6,-2 17.48,-7.84c0.78,-1.41 0.27,-3.18 -1.13,-3.96c-0.41,-0.22 -0.87,-0.35 -1.34,-0.36c-4.64,-0.14 -8.32,-3.62 -12.81,-4.49c-3.22,-0.75 -6.6,0.04 -9.15,2.13c-2.91,2.27 1.18,6.31 4,4.06c0.01,0 0.04,-0.02 0.09,-0.05c4.67,0.31 7.85,0.88 9.54,1.7z"/>
  <path id="bzEVGjmkP" d="m195.89,116.16c0.83,0.47 1.7,0.87 2.6,1.2c2.61,1.38 5.48,2.18 8.43,2.34c-0.5,-0.88 -4.5,-7.93 -5,-8.81c-0.23,0.45 -2.33,0.72 -2.9,0.87c-0.61,0.16 -5.47,1.44 -6.08,1.6c-4.66,1.22 -5.18,6.47 -2.58,9.78c1.63,2.09 3.48,1.94 5.67,2.82c1.51,0.62 2.65,2 4.14,2.77c4.28,2.21 9.57,1.18 12.1,-3c3.88,-6.48 -6.23,-12.37 -10.1,-5.91c1.56,-2.16 2.92,-1.34 3.24,-1.49c0.15,0.07 0.08,0 -0.23,-0.16c-0.76,-0.8 -1.65,-1.48 -2.63,-2c-0.93,-0.58 -1.94,-1.04 -3,-1.34c-0.08,-0.01 -0.72,-0.13 -0.8,-0.15c-1.06,-0.27 -1.09,-0.18 -0.11,0.26c-0.26,0.97 -2.38,8.74 -2.64,9.71c5.48,-1.45 13.16,-2.17 16,-7.85c2,-4 -0.42,-8.67 -5.05,-8.81c-3.15,-0.1 -6,-2.79 -9.18,-3.42c-3.79,-0.88 -7.77,0.08 -10.73,2.6c-2.49,2 -2,6.23 0,8.28c2.46,2.46 5.78,2 8.28,0c0,0 -0.01,0 -0.03,0c0,0.18 0.2,0.42 0.6,0.71z"/>
  <path id="e4EBmIxBpF" d="m200.3,114.26c2.05,1.09 4.3,1.72 6.62,1.85c-0.2,-0.34 -1.8,-3.07 -2,-3.41c-0.9,1.81 -3.25,2 -5,2.51c-0.61,0.16 -5.47,1.44 -6.08,1.6c-1.8,0.48 -2,2.51 -1,3.8c1.17,1.49 2.42,1.38 4.09,1.9c2,0.61 3.18,2.26 5,3.13c2.59,1.24 5.67,0.78 7.2,-1.77c1.53,-2.55 -2.42,-4.8 -3.92,-2.29c-0.7,1.16 -3.81,-2 -4.52,-2.39c-1.15,-0.72 -3.87,-0.81 -4.64,-1.79c-0.1,0.38 -0.9,3.41 -1,3.79c4.39,-1.16 11.55,-1.6 13.83,-6.2c0.62,-1.11 0.22,-2.51 -0.89,-3.13c-0.34,-0.19 -0.72,-0.29 -1.11,-0.29c-3.67,-0.11 -6.58,-2.86 -10.13,-3.55c-2.55,-0.59 -5.22,0.03 -7.25,1.68c-2.3,1.8 0.94,5 3.21,3.21c0,0 0.02,0 0.04,0c3.69,0.25 6.2,0.7 7.55,1.35z"/>
  <path id="d98Ziuj6t" d="m493.61,312.17c0,47.8 0,74.36 0,79.67c0,5.17 -4.2,9.37 -9.37,9.37c-5.17,0 -9.37,-4.2 -9.37,-9.37c0,-25.8 0,-51.6 0,-77.39"/>
  <path id="a2EZn3jUvY" d="m480.14,312.79c0,0 0,0 0,0c0,1.67 0,2.59 0,2.78c0,0 0,0 0,0c-2.81,0 -4.37,0 -4.68,0c0,0 0,0 0,0c0,-1.67 0,-2.59 0,-2.78c0,0 0,0 0,0c2.81,0 4.37,0 4.68,0z"/>
 </defs>
 <g>
  <title>background</title>
  <rect fill="none" id="canvas_background" height="303" width="484" y="-1" x="-1"/>
 </g>
 <g>
  <title>Layer 1</title>
  <g stroke="none" id="svg_1">
   <g stroke="none" id="svg_2">
    <g stroke="none" id="svg_3">
     <use stroke="none" x="-14" y="-103" id="svg_4" fill-opacity="0" fill="#000000" xlink:href="#auJzznlOf"/>
     <g stroke="none" id="svg_5">
      <use stroke="#000000" x="-14" y="-103" id="svg_6" stroke-opacity="0" fill-opacity="0" xlink:href="#auJzznlOf"/>
     </g>
    </g>
    <g stroke="none" id="svg_7">
     <use stroke="none" x="-14" y="-103" id="svg_8" fill="#000000" xlink:href="#a4dHTW274V"/>
     <g stroke="none" id="svg_9">
      <use stroke="#000000" x="-14" y="-103" id="svg_10" stroke-width="0.93" fill-opacity="0" xlink:href="#a4dHTW274V"/>
     </g>
    </g>
    <g stroke="none" id="svg_11">
     <use stroke="none" x="-14" y="-103" id="svg_12" fill="#000000" xlink:href="#b2GITUo9DH"/>
     <g stroke="none" id="svg_13">
      <use stroke="#000000" x="-14" y="-103" id="svg_14" stroke-width="0.93" fill-opacity="0" xlink:href="#b2GITUo9DH"/>
     </g>
    </g>
    <g stroke="none" id="svg_15">
     <use stroke="none" x="-14" y="-103" id="svg_16" fill="#000000" xlink:href="#dUO0zxvpE"/>
     <g stroke="none" id="svg_17">
      <use stroke="#000000" x="-14" y="-103" id="svg_18" stroke-width="0.94" fill-opacity="0" xlink:href="#dUO0zxvpE"/>
     </g>
    </g>
    <g stroke="none" id="svg_19">
     <use stroke="none" x="-14" y="-103" id="svg_20" fill="#000000" xlink:href="#bbZCGQCOXU"/>
     <g stroke="none" id="svg_21">
      <use stroke="#000000" x="-14" y="-103" id="svg_22" stroke-width="0.94" fill-opacity="0" xlink:href="#bbZCGQCOXU"/>
     </g>
    </g>
    <g stroke="none" id="svg_23">
     <use stroke="none" x="-14" y="-103" id="svg_24" fill="#000000" xlink:href="#a3csUTnh9g"/>
     <g stroke="none" id="svg_25">
      <use stroke="#000000" x="-14" y="-103" id="svg_26" stroke-width="0.94" fill-opacity="0" xlink:href="#a3csUTnh9g"/>
     </g>
    </g>
    <g stroke="none" id="svg_27">
     <use stroke="none" x="-14" y="-103" id="svg_28" fill="#000000" xlink:href="#b2pZaechuU"/>
     <g stroke="none" id="svg_29">
      <use stroke="#000000" x="-14" y="-103" id="svg_30" stroke-width="1.08" fill-opacity="0" xlink:href="#b2pZaechuU"/>
     </g>
    </g>
    <g stroke="none" id="svg_31">
     <use stroke="none" x="-14" y="-103" id="svg_32" fill="#784922" xlink:href="#a1F0t8xAsx"/>
     <g stroke="none" id="svg_33">
      <use stroke="#000000" x="-14" y="-103" id="svg_34" stroke-width="1.06" fill-opacity="0" xlink:href="#a1F0t8xAsx"/>
     </g>
    </g>
    <g stroke="none" id="svg_35">
     <use stroke="none" x="-14" y="-103" id="svg_36" fill="#000000" xlink:href="#bOxD4jrqb"/>
     <g stroke="none" id="svg_37">
      <use stroke="#000000" x="-14" y="-103" id="svg_38" stroke-width="1.08" fill-opacity="0" xlink:href="#bOxD4jrqb"/>
     </g>
    </g>
    <g stroke="none" id="svg_39">
     <use stroke="none" x="-14" y="-103" id="svg_40" fill="#784922" xlink:href="#diyclxcBx"/>
     <g stroke="none" id="svg_41">
      <use stroke="#000000" x="-14" y="-103" id="svg_42" stroke-width="0.52" fill-opacity="0" xlink:href="#diyclxcBx"/>
     </g>
    </g>
    <g stroke="none" id="svg_43">
     <use stroke="none" x="-14" y="-103" id="svg_44" fill="#000000" xlink:href="#b1zNH2uxTr"/>
     <g stroke="none" id="svg_45">
      <use stroke="#000000" x="-14" y="-103" id="svg_46" stroke-width="0.93" fill-opacity="0" xlink:href="#b1zNH2uxTr"/>
     </g>
    </g>
    <g stroke="none" id="svg_47">
     <use stroke="none" x="-14" y="-103" id="svg_48" fill="#784922" xlink:href="#bhNmL8if2"/>
     <g stroke="none" id="svg_49">
      <use stroke="#000000" x="-14" y="-103" id="svg_50" stroke-width="0.93" fill-opacity="0" xlink:href="#bhNmL8if2"/>
     </g>
    </g>
    <g stroke="none" id="svg_51">
     <use stroke="none" x="-14" y="-103" id="svg_52" fill="#784922" xlink:href="#c2U1ZoJZgs"/>
     <g stroke="none" id="svg_53">
      <use stroke="#000000" x="-14" y="-103" id="svg_54" stroke-width="0.93" fill-opacity="0" xlink:href="#c2U1ZoJZgs"/>
     </g>
    </g>
    <g stroke="none" id="svg_55">
     <use stroke="none" x="-14" y="-103" id="svg_56" fill="#999999" xlink:href="#d4TcIgBIE"/>
     <g stroke="none" id="svg_57">
      <use stroke="#000000" x="-14" y="-103" id="svg_58" stroke-width="0.94" fill-opacity="0" xlink:href="#d4TcIgBIE"/>
     </g>
    </g>
    <g stroke="none" id="svg_59">
     <use stroke="none" x="-14" y="-103" id="svg_60" fill="#cccccc" xlink:href="#byVs3ur7i"/>
     <g stroke="none" id="svg_61">
      <use stroke="#000000" x="-14" y="-103" id="svg_62" stroke-width="0.94" fill-opacity="0" xlink:href="#byVs3ur7i"/>
     </g>
    </g>
    <g stroke="none" id="svg_63">
     <use stroke="none" x="-14" y="-103" id="svg_64" fill="#784922" xlink:href="#b1kCx9Mf4b"/>
     <g stroke="none" id="svg_65">
      <use stroke="#000000" x="-14" y="-103" id="svg_66" stroke-width="1.21" fill-opacity="0" xlink:href="#b1kCx9Mf4b"/>
     </g>
    </g>
    <g stroke="none" id="svg_67">
     <use stroke="none" x="-14" y="-103" id="svg_68" fill="#cccccc" xlink:href="#alpDOTF2F"/>
     <g stroke="none" id="svg_69">
      <use stroke="#000000" x="-14" y="-103" id="svg_70" stroke-width="0.94" fill-opacity="0" xlink:href="#alpDOTF2F"/>
     </g>
    </g>
    <g stroke="none" id="svg_71">
     <use stroke="none" x="-14" y="-103" id="svg_72" fill="#ffc892" xlink:href="#d1pugQ4nN1"/>
     <g stroke="none" id="svg_73">
      <use stroke="#000000" x="-14" y="-103" id="svg_74" stroke-width="0.94" fill-opacity="0" xlink:href="#d1pugQ4nN1"/>
     </g>
    </g>
    <g stroke="none" id="svg_75">
     <use stroke="none" x="-14" y="-103" id="svg_76" fill="#ffc892" xlink:href="#bhvrFaRAS"/>
     <g stroke="none" id="svg_77">
      <use stroke="#000000" x="-14" y="-103" id="svg_78" stroke-width="0.94" fill-opacity="0" xlink:href="#bhvrFaRAS"/>
     </g>
    </g>
    <g stroke="none" id="svg_79">
     <use stroke="none" x="-14" y="-103" id="svg_80" fill="#36b1bf" xlink:href="#a7Mmz2jgdb"/>
     <g stroke="none" id="svg_81">
      <use stroke="#000000" x="-14" y="-103" id="svg_82" stroke-width="0.94" fill-opacity="0" xlink:href="#a7Mmz2jgdb"/>
     </g>
    </g>
    <g stroke="none" id="svg_83">
     <use stroke="none" x="-14" y="-103" id="svg_84" fill="#ffc892" xlink:href="#a395xWTuLk"/>
     <g stroke="none" id="svg_85">
      <use stroke="#000000" x="-14" y="-103" id="svg_86" stroke-width="0.71" fill-opacity="0" xlink:href="#a395xWTuLk"/>
     </g>
    </g>
    <g stroke="none" id="svg_87">
     <use stroke="none" x="-14" y="-103" id="svg_88" fill="#a67c52" xlink:href="#n3RX7toIF"/>
     <g stroke="none" id="svg_89">
      <use stroke="#000000" x="-14" y="-103" id="svg_90" stroke-width="0.71" fill-opacity="0" xlink:href="#n3RX7toIF"/>
     </g>
    </g>
    <g stroke="none" id="svg_91">
     <use stroke="none" x="-14" y="-103" id="svg_92" fill="#000000" xlink:href="#c2cF8q7DJ"/>
     <g stroke="none" id="svg_93">
      <use stroke="#000000" x="-14" y="-103" id="svg_94" stroke-opacity="0" fill-opacity="0" xlink:href="#c2cF8q7DJ"/>
     </g>
    </g>
    <g stroke="none" id="svg_95">
     <use stroke="none" x="-14" y="-103" id="svg_96" fill="#4ad9d9" xlink:href="#c2V9hjtgO"/>
     <g stroke="none" id="svg_97">
      <use stroke="#000000" x="-14" y="-103" id="svg_98" stroke-opacity="0" fill-opacity="0" xlink:href="#c2V9hjtgO"/>
     </g>
    </g>
    <g stroke="none" id="svg_99">
     <use stroke="none" x="-14" y="-103" id="svg_100" fill="#000000" xlink:href="#a6lUIAFQOs"/>
     <g stroke="none" id="svg_101">
      <use stroke="#000000" x="-14" y="-103" id="svg_102" stroke-opacity="0" fill-opacity="0" xlink:href="#a6lUIAFQOs"/>
     </g>
    </g>
    <g stroke="none" id="svg_103">
     <use stroke="none" x="-14" y="-103" id="svg_104" fill="#4ad9d9" xlink:href="#b3y9C3vK6i"/>
     <g stroke="none" id="svg_105">
      <use stroke="#000000" x="-14" y="-103" id="svg_106" stroke-opacity="0" fill-opacity="0" xlink:href="#b3y9C3vK6i"/>
     </g>
    </g>
    <g stroke="none" id="svg_107">
     <use stroke="none" x="-14" y="-103" id="svg_108" fill="#000000" xlink:href="#bzEVGjmkP"/>
     <g stroke="none" id="svg_109">
      <use stroke="#000000" x="-14" y="-103" id="svg_110" stroke-opacity="0" fill-opacity="0" xlink:href="#bzEVGjmkP"/>
     </g>
    </g>
    <g stroke="none" id="svg_111">
     <use stroke="none" x="-14" y="-103" id="svg_112" fill="#4ad9d9" xlink:href="#e4EBmIxBpF"/>
     <g stroke="none" id="svg_113">
      <use stroke="#000000" x="-14" y="-103" id="svg_114" stroke-opacity="0" fill-opacity="0" xlink:href="#e4EBmIxBpF"/>
     </g>
    </g>
    <g stroke="none" id="svg_115">
     <use stroke="none" x="-14" y="-103" id="svg_116" fill="#784922" xlink:href="#d98Ziuj6t"/>
     <g stroke="none" id="svg_117">
      <use stroke="#000000" x="-14" y="-103" id="svg_118" stroke-width="1.08" fill-opacity="0" xlink:href="#d98Ziuj6t"/>
     </g>
    </g>
    <g stroke="none" id="svg_119">
     <use stroke="none" x="-14" y="-103" id="svg_120" fill="#784922" xlink:href="#a2EZn3jUvY"/>
     <g stroke="none" id="svg_121">
      <use stroke="#000000" x="-14" y="-103" id="svg_122" stroke-opacity="0" fill-opacity="0" xlink:href="#a2EZn3jUvY"/>
     </g>
    </g>
   </g>
  </g>
 </g>
</svg>