<svg id="Réteg_1" data-name="Réteg 1" xmlns="http://www.w3.org/2000/svg" viewBox="0 0 1920 6480"><defs><style>.cls-1{fill:#4ad9d9;}.cls-2{fill:#f23c50;}.cls-3{fill:#fbb03b;}.cls-4{fill:#7e00ff;}</style></defs><title>Háttér</title><rect class="cls-1" width="1920" height="2160"/><path class="cls-2" d="M1920,0c-30.89,19.13-72.08,46.15-120,82-55,41.15-130.52,98.24-223,196-110.38,116.68-187.92,231.05-215,272-64.07,96.88-110.3,182.86-143,244-43,80.45-60,119-125,252-79.14,162-118.71,242.92-158,316-50.27,93.51-131.42,242.83-251,386-24.76,29.64-140.3,165.74-305,268-104.94,65.16-193.95,94.3-243,110A1043.55,1043.55,0,0,1,0,2160H1920Z"/><rect class="cls-2" y="2158" width="1920" height="2160"/><path class="cls-3" d="M1920,2158c-30.89,19.13-72.08,46.15-120,82-55,41.15-130.52,98.24-223,196-110.38,116.68-187.92,231.05-215,272-64.07,96.88-110.3,182.86-143,244-43,80.45-60,119-125,252-79.14,161.95-118.71,242.92-158,316-50.27,93.51-131.42,242.83-251,386-24.76,29.64-140.3,165.74-305,268-104.94,65.16-193.95,94.3-243,110A1043.55,1043.55,0,0,1,0,4318H1920Z"/><rect class="cls-3" y="4318" width="1920" height="2160"/><path class="cls-4" d="M1920,4318c-30.89,19.13-72.08,46.15-120,82-55,41.15-130.52,98.24-223,196-110.38,116.68-187.92,231.05-215,272-64.07,96.88-110.3,182.86-143,244-43,80.45-60,119-125,252-79.14,161.95-118.71,242.92-158,316-50.27,93.51-131.42,242.83-251,386-24.76,29.64-140.3,165.74-305,268-104.94,65.16-193.95,94.3-243,110A1043.55,1043.55,0,0,1,0,6478H1920Z"/></svg>