<svg width="1920.03" height="601.36" xmlns="http://www.w3.org/2000/svg"><defs><style>.cls-1,.cls-2,.cls-3{fill:#fff;}.cls-2,.cls-3{stroke:#29abe2;}.cls-2,.cls-3,.cls-4{stroke-miterlimit:10;}.cls-2{stroke-width:4px;}.cls-4{fill:none;stroke:red;stroke-width:3px;}</style></defs><path fill="none" id="canvas_background" d="M-1-1h582v402H-1z"/><g><path id="svg_1" class="cls-1" d="M.01 2.01H1920v469.21H.01z"/><path id="svg_2" d="M.19 556.79c.2.16.39.2.58.37a2.76 2.76 0 0 0 .63.4c.21.23.41.25.62.45s.41.21.62.53c.21.57.43.12.66.7a5 5 0 0 1 .7.9c0 .45.17.08.35.49s.35.44.35.5c.2.35.38.37.56.79.19.27.36.27.53.74.17-.23.34.42.49.72s.32.06.47.71c.14 0 .29.6.42.7a3.32 3.32 0 0 1 .4.71c.13.5.25.41.37.73a2.49 2.49 0 0 1 .34.76 5.72 5.72 0 0 0 .32.8 3.41 3.41 0 0 0 .28.85 3.45 3.45 0 0 1 .27.92c.08.46.16.52.23 1s.15.55.21 1.08a4.38 4.38 0 0 1 .08.68 7.07 7.07 0 0 1 0 .75V574.68a7.63 7.63 0 0 1 0 .86v1.71a2.11 2.11 0 0 0 .11.72c.05.06.12.35.21.54a2 2 0 0 0 .48.48 13.32 13.32 0 0 0 3.48 1.48c.67.22 1.3.43 1.78.64a40.69 40.69 0 0 0 4.56 1.66l.76.25c.26.06.52 0 .78.26.26 0 .52.32.78.26a1.1 1.1 0 0 1 .79.29c.26-.09.53.32.8.31s.54.28.81.34.6.38.91.37a2.14 2.14 0 0 0 .92.35c.3-.18.61 0 .92.31s.61.51.92.28c.31.12.62-.11.92.24s.62-.14.93.22c.31-.33.62 0 .93.18.31-.18.62 0 .92.15.31.78.62.12.93.11.31.19.61.06.92.09s.61.54.91 0c.31-.21.61.56.92 0 .22 0 .45-.48.67 0s.46 0 .69 0c.22.44.45-.66.68 0 .29.26.57.08.86 0 .28-.34.56.09.83 0s.55-.43.82 0a3.68 3.68 0 0 0 .81-.05l.78-.12c.26 0 .52-.11.77-.18a5.7 5.7 0 0 0 1.24-.55c.94-.51 1.65-.77 3.54 0s4.14 3.31 5.92 5.38c.5.57.94 1.09 1.32 1.49l.38.41c.37.39.76.79 1.12 1.22.19.21.37.43.54.65a3 3 0 0 1 .5.69c.16.14.3 0 .44.74a3.76 3.76 0 0 0 .35.78c.1-.07.19 1 .25.84.29.2.58 0 .88.13.29-.33.59-.2.89.1a1.54 1.54 0 0 1 .9.06h.92c1.55 0 3.13 0 4.7-.14l.94-.08a3.26 3.26 0 0 1 .93-.08c.31-.15.62.16.93-.09s.61.14.91-.09a1.86 1.86 0 0 1 .9-.1c.31.32.62.06.93-.1s.61-.36.92-.1a3.68 3.68 0 0 1 .93-.1c.3.12.61-.29.92-.11a4.12 4.12 0 0 1 .92-.1c.31.26.62-.19.93-.11a1 1 0 0 1 .92-.11 4.23 4.23 0 0 0 .93-.12c.31-.14.62-.47.93-.11.31-.14.62 0 .93-.12a1.92 1.92 0 0 0 .94-.12c.31-.29.63-.07.94-.12a1.09 1.09 0 0 1 1-.13 3.82 3.82 0 0 1 1-.13c.32 0 .64-.11 1-.13s.64-.09 1-.13a2.53 2.53 0 0 1 1-.13c.33.31.66-.37 1-.14.33-.4.66 0 1-.14a1 1 0 0 1 1-.14c.33-.21.67-.1 1-.14l1-.15a1.69 1.69 0 0 1 1-.15c.34.32.69 0 1-.15s.69-.07 1-.15a.83.83 0 0 0 1.07-.16 3.3 3.3 0 0 0 .93-.12 1.26 1.26 0 0 1 .93-.09c.31.35.62.17.93-.07s.62.08.93 0 .62 0 .93 0h.92c.31-.23.62-.09.93 0a1.24 1.24 0 0 0 .91 0 6.17 6.17 0 0 0 .86 0c.29-.06.57 0 .86 0a3.93 3.93 0 0 0 .84 0c.28.33.56 0 .84 0 .27.27.55-.09.82 0 .28-.26.55 0 .83 0 .27-.23.54-.11.81-.07s.54-.41.81-.1a5.66 5.66 0 0 1 .81-.12c.25 0 .5.17.75-.13.25 0 .5-.14.75-.15s.5-.46.75-.16c.25-.44.5-.42.74-.16s.58-.27.87-.19.59-.25.88-.18a1.58 1.58 0 0 1 .89-.17 1.08 1.08 0 0 0 .89-.16l.9-.12.9-.09h.92c.31-.16.61 0 .92 0a1.19 1.19 0 0 0 .94.06c.31 0 .63.16.94.11s.64.25 1 .18c.25-.25.5.42.74.2.25.14.48 0 .71.24.23-.16.45.2.67.29.22-.08.43.36.65.3.21.16.42 0 .62.31s.48.39.72.35c.24-.24.47.35.71.33s.49.49.74.29a.92.92 0 0 0 .77.23 1.55 1.55 0 0 0 .85.19c.29 0 .59.26.88.14s.6.12.9.09a2 2 0 0 0 .91.06 7.23 7.23 0 0 0 .93 0 1 1 0 0 0 .94 0c.31 0 .63.28.94 0 .32.06.63.26.95 0a1 1 0 0 0 .95 0h.94c.31 0 .5-.31.75 0s.51 0 .76 0c.25-.36.51-.31.76 0 .25-.05.5 0 .75 0 .24.3.49.12.73 0 .29.36.57 0 .85 0a4.93 4.93 0 0 1 .86 0c.29-.17.58.35.87 0 .29-.14.58.5.87 0 .29-.2.58.38.88 0 .29.14.58 0 .87 0 .29.3.58-.55.87 0 .29-.35.58 0 .87 0 .31-.18.63.39 1 0 .32.1.64.26 1 0a1.38 1.38 0 0 0 1 0c.32-.27.63.09 1 0s.64.12 1 0a3.09 3.09 0 0 1 1 0c.32.3.64 0 1 0a2.58 2.58 0 0 1 1 0c.31-.27.63.08.94 0 .32.22.63.06.94 0 .31.14.63-.12.94-.06.31-.16.61 0 .92-.07.31.14.61 0 .92-.09.3-.27.6 0 .9-.12a1.59 1.59 0 0 1 .9-.14 5.46 5.46 0 0 1 .88-.17 4.63 4.63 0 0 0 1-.21c.34-.08.68 0 1-.19.34-.4.68-.29 1-.19a5.2 5.2 0 0 0 1-.17c.33-.1.67-.08 1-.16s.67.17 1-.16a2.88 2.88 0 0 0 1-.14c.33.16.67-.15 1-.13.33.31.66-.1 1-.13a6.66 6.66 0 0 1 1-.11c.33-.07.66.09 1-.11a1.43 1.43 0 0 0 1-.1.88.88 0 0 1 1-.09c.33-.22.65 0 1-.08s.66.13 1-.08.66.08 1-.07a.72.72 0 0 1 1-.06 1.47 1.47 0 0 0 1-.06c.33.15.65-.2 1 0s.64 0 1 0 .64-.43 1 0c.33-.39.65-.25 1 0a1.23 1.23 0 0 1 1 0c.32-.18.64 0 1 0a.65.65 0 0 1 1 0c.32.07.64-.87 1 0 .32-.25.64.1 1 0 .31.24.63-.12 1 0s.63.31.95 0a3.78 3.78 0 0 1 1 0c.31.1.63-.08.95 0a1.32 1.32 0 0 1 .94 0c.32 0 .63.14.94 0 .32 0 .63-.15 1 0s.62 0 .93 0 .63-.24.94 0 .59-.19.88 0h.89c.3-.32.6.58.9 0 .3.21.59-.44.89 0 .3-.21.6.05.89 0 .3-.34.6-.19.89 0a2.15 2.15 0 0 0 .91 0 1.27 1.27 0 0 0 .92 0c.31-.3.61.11.92 0 .31-.33.61.38.92 0h.92a40.65 40.65 0 0 0 8.09-.57c.74-.14 1.45-.31 2.14-.48a17.78 17.78 0 0 1 6.07-.71 53.76 53.76 0 0 1 7.74 1.51c1.14.28 2.3.56 3.46.81l.87.18a2 2 0 0 0 .88.16 1.09 1.09 0 0 0 .87.14 4.41 4.41 0 0 1 .88.11c.29.33.58-.21.87.08.3.12.6 0 .9.06s.61-.45.91.06c.3-.06.61-.5.91 0s.61.07.92 0c.3.17.61-.15.91 0 .31-.14.62.13.92 0a2.84 2.84 0 0 0 .92 0c.31.2.62-.14.93 0 .31-.17.61 0 .92 0a1.64 1.64 0 0 1 .93 0 4.05 4.05 0 0 0 .92 0c.31-.29.62-.08.92 0a.94.94 0 0 0 .93 0c.3.1.61-.13.92 0 .3-.25.61.3.92 0 .3-.13.61.19.91 0s.61.18.91 0a1.79 1.79 0 0 0 .89 0c.3-.26.59-.11.89 0 .29-.39.58.34.88 0 .29.39.59-.35.88 0a1.75 1.75 0 0 0 .88 0c.29 0 .58.16.88 0 .29 0 .58-.25.87 0h1c.32.31.65-.07 1 0 .32.24.64-.27 1 0 .31-.19.63.15.94.06a2.36 2.36 0 0 0 .95.08.84.84 0 0 1 .93.1c.31-.15.63.11.94.1s.62.24.93.13.62.1.93.13a1.29 1.29 0 0 0 .93.14 5.25 5.25 0 0 0 .94.15c.31.1.63.33.94.15.31.08.63-.21.95.16.31 0 .63.62.95.16s.49-.31.73.13.49 0 .74.12c.25-.19.49 0 .74.13.31-.31.62-.18.93.14a.85.85 0 0 0 .93.14c.3-.1.61-.22.93.13.31.18.62 0 .93.13a2.7 2.7 0 0 0 .93.11c.31 0 .62.24.93.11.31.13.63-.09.94.1a1.86 1.86 0 0 0 .93.09 2.3 2.3 0 0 1 .94.09c.31-.07.62.24.94.08.31.11.62-.22.93.07a1.78 1.78 0 0 0 .94.07 1.49 1.49 0 0 1 .93.07c.32 0 .63-.11.94.06s.62-.1.93.06c.32-.38.63-.26.94.06.31 0 .62-.15.93 0a.61.61 0 0 0 .93 0 1.42 1.42 0 0 0 .93 0 1.05 1.05 0 0 1 .93 0c.31-.25.61.33.92 0 .31-.07.62.19.93 0s.61.13.92 0c.31.57.62 0 .93 0 .32-.3.63.25.94.05.32 0 .63-.17 1 0a5.93 5.93 0 0 1 .94 0h.95c2.22.12 4.46.25 6.69.43.32 0 .64 0 .95.08a7.77 7.77 0 0 1 1 .08c.32-.28.64.07.95.09.32-.23.64.14.95.1.25.22.5.05.75.09.26.38.51.14.77.12.26.37.53-.15.8.14s.54.07.81.15.64.2 1 .18a1.92 1.92 0 0 0 1 .17c.32-.12.63.23.95.14a1.5 1.5 0 0 0 .93.1 2.32 2.32 0 0 1 .91 0c.3-.14.59 0 .87 0s.56.32.83-.1a4.71 4.71 0 0 1 .56-.15c.19.09.37-.37.55-.22.18-.58.36-.13.56-.27s.35.19.54-.26c.19 0 .39.17.6-.26.21-.14.43-.33.66-.22.31-.31.61-.14.92-.24s.62 0 .93-.2a1.45 1.45 0 0 0 .94-.19 2.2 2.2 0 0 0 .94-.16l.95-.13a53.8 53.8 0 0 1 5.54-.44h.88c.29-.38.58-.11.87 0s.56.16.84 0c.27.2.55.32.82 0s.53 0 .79 0c.29.21.59.45.88 0 .3.15.6.51.89 0a1.05 1.05 0 0 0 .9 0c.3-.35.6.07.9 0s.6-.18.91 0c.3 0 .6.16.9 0 .31-.68.61-.23.91 0s.61.45.92-.07a3.22 3.22 0 0 0 .92-.08c.3.52.61.11.91-.1s.62 0 .93-.11c.3.25.61.5.92-.14.31-.45.62.61.92-.15.31-.42.62.08.93-.18a4.45 4.45 0 0 1 .93-.21c.31-.24.61.08.92-.22a1 1 0 0 1 .93-.25c.31-.43.62-.57.93-.28.31 0 .62.15.93-.31a1.24 1.24 0 0 0 .92-.34.71.71 0 0 0 .93-.37c.31 0 .61-.71.92-.39.31.09.62-.6.92-.44a1.22 1.22 0 0 0 .92-.46c.35-.31.68-.15 1-.52.32-.15.64-.55.95-.46.31-.11.61-.08.91-.4.29.19.59.1.87-.35s.57-.22.84-.3c.28.11.55-.24.82-.26s.54-.39.81-.21.53.34.8-.17a.87.87 0 0 0 .8-.13c.27.28.54-.07.81-.1.27-.25.54 0 .82-.06.28.15.56-.24.85 0a4.31 4.31 0 0 1 .88 0c.29 0 .6-.12.91 0s.63 0 1 0 .66.29 1 .07c.35 0 .7.31 1.07.09.37.38.75 0 1.14.11.28-.13.57.3.85.08a1.24 1.24 0 0 1 .86.1.64.64 0 0 1 .85.11 1 1 0 0 1 .86.11l.85.12c.28.21.57-.2.85.13.28.15.57 0 .85.13.28.43.56-.22.84.13s.56.12.84.13.55.51.83.14c.31.32.62-.24.93.15.31-.15.62 0 .93.14s.62-.71.93.15c.31.42.63.23.94.14.31.16.63.38.94.14s.63.15.94.13c.32-.2.63.38.95.11.31.08.63-.21.94.11a2.77 2.77 0 0 1 1 .1.93.93 0 0 0 .95.08c.32.2.63 0 .95.07s.63-.1.95 0c.31 0 .63-.26.94 0 .32-.06.63.06 1 0a1 1 0 0 0 .72 0c.23.08.47-.18.7 0a.51.51 0 0 0 .7 0 .48.48 0 0 0 .7 0c.24.28.47 0 .7 0s.59.23.88 0a6.61 6.61 0 0 1 .89 0c.29-.29.59.08.89 0a1.91 1.91 0 0 1 .89 0c.3.07.6.29.9 0a1 1 0 0 1 .9 0h.9c.3 0 .6.24.9 0a1.76 1.76 0 0 1 .91 0c.3.27.6.15.91.06s.6-.32.91.08c.3.15.6-.1.91.09s.41-.24.63.06a.66.66 0 0 1 .71 0c.24.22.49-.21.75 0s.53.12.8 0a.84.84 0 0 0 1 0c.32-.31.64.09 1 .06s.65-.17 1 .06.64.06 1 .1a1.38 1.38 0 0 0 .93.12.85.85 0 0 1 .88.16c.29-.25.57.16.84.2.26-.23.52.24.76.25s.47-.14.68.32c.31.1.56.6.76.57.2.32.35.58.48.61s.22.6.3.57c.12.58.2.9.32.54.11.45.25 0 .48.35h.24c.13-.43.3.25.55 0 .24 0 .55-.79.94 0 .39-.4.86 0 1.42-.11.13 0 .24-.21.33 0s.14-.13.17 0a2.34 2.34 0 0 1 .95 0 1.7 1.7 0 0 1 .95 0 6 6 0 0 1 .95 0 3.71 3.71 0 0 1 .94.05c.32 0 .63 0 .94.06 1.88.13 3.73.33 5.55.54 2.38.26 4.8.53 7.23.63.31 0 .61-.11.92 0 .3-.12.61.41.91 0 .31-.66.61.64.92 0 .3-.22.61.65.91 0 .31.6.61.38.92-.06.31.62.61.14.92-.07.31 0 .62-.6.93-.1.3-.52.61.11.92-.11s.61 0 .92-.13.61-.11.91-.15a1 1 0 0 1 .92-.16c.3-.12.6 0 .91-.17a3.76 3.76 0 0 0 .91-.18l.9-.19.9-.2a2.44 2.44 0 0 0 .9-.2c.3-.16.6 0 .9-.21a2.62 2.62 0 0 1 .89-.21 3.22 3.22 0 0 1 .89-.22c.3-.21.59 0 .88-.21s.59.06.89-.21a1 1 0 0 1 .89-.22c.3-.13.6-.32.9-.21.3-.26.6 0 .9-.21s.61 0 .91-.21a1.53 1.53 0 0 0 .91-.2 2.1 2.1 0 0 1 .91-.19c.3 0 .6-.15.91-.18s.55-.08.84-.13c.28.17.57-.19.87-.07s.59-.09.89 0 .6-.07.9 0l.9.07c.31 0 .61 0 .91.09l.89.12c.3 0 .59.19.88.13s.57.29.85.14a1 1 0 0 1 .82.14c0 .14.28-.08.56.09s.55.28.55.1a2.57 2.57 0 0 0 1.05.17 6.28 6.28 0 0 1 1 .16 2.09 2.09 0 0 1 1 .16 1.71 1.71 0 0 1 1 .15 4.24 4.24 0 0 0 1 .15 1.47 1.47 0 0 1 1 .14c.33.1.65-.08 1 .14s.64 0 1 .13.64 0 1 .12.63 0 1 .12a3.09 3.09 0 0 1 .95.11 2 2 0 0 0 .94.1 1.05 1.05 0 0 1 .94.09 1.2 1.2 0 0 0 .94.09 1.52 1.52 0 0 0 .94.08c.31.25.62.06.94.08a1.45 1.45 0 0 0 .94.07 2.49 2.49 0 0 1 .94 0c.32.17.63-.13.95 0s.63.25 1 0c.32 0 .64-.23 1 0 .32 0 .65.2 1 0a5.24 5.24 0 0 1 1 0 2.36 2.36 0 0 0 1 0c.33.19.66-.35 1 0 .27-.42.54 0 .81 0 .27-.29.54 0 .81 0s.55-.05.82 0 .61.66.92 0c.31.55.61-.21.91 0s.61-.32.91 0 .6-.2.9 0a.64.64 0 0 0 .89 0 1.4 1.4 0 0 0 .88-.06c.3-.38.59.15.88-.08.29.4.58-.22.87-.11a1.34 1.34 0 0 0 .86-.15c.28-.18.57.08.85-.18.28.17.56-.34.84-.24s.56-.23.84-.28c.28-.63.56.27.83-.33.18.22.36-.73.54-.28.18-.46.36-.66.55-.35.19 0 .39-.8.6-.38.2.84.42.06.64-.35.23-.12.47-.76.72-.28.24-.14.48.23.74-.18.25 0 .51.39.78-.11.27-.34.54.23.83 0 .28 0 .56.11.86 0 .29-.52.59.26.89.06.3-.68.6.35.91.11.31-.46.62.41.94.15.31 0 .63.35 1 .18.31.38.63-.09 1 .21.32 0 .64.19 1 .23a1.39 1.39 0 0 1 1 .24 2 2 0 0 0 .94.25c.32.88.63-.17.94.25s.62.1.92.24c.3-.17.6.46.89.23.28 0 .56-.26.83.21.27.25.52.12.76.17.25-.11.47.38.69.12a1.74 1.74 0 0 0 .78.11 2 2 0 0 0 .8.08c.27.17.54.07.81.07.27-.17.55.13.82 0 .27.1.54-.12.82 0s.55 0 .82 0a1.32 1.32 0 0 1 .81 0c.27.2.54-.1.82 0s.54-.17.81 0a5.7 5.7 0 0 0 .82 0c.28.12.55-.14.82 0s.55.12.82.07.55 0 .82.08.54.42.81.11c.27-.13.53.14.8.13.35.59.67 0 1 .21.31.46.61.3.89.28a1.54 1.54 0 0 1 .81.31c.26.36.51-.12.75.34.25 0 .49.67.73.36.23.34.46 0 .69.33.23.13.47.11.7.32s.48-.17.73.28.51.15.78.23.46.35.71.11a4.27 4.27 0 0 1 .79 0c.27-.07.55.29.84 0 .29 0 .58 0 .87-.05s.59-.09.89-.08c.27-.23.54.17.8-.07a1.38 1.38 0 0 0 .78 0c.25.11.5-.12.74 0s.57 0 .86 0c.28-.27.57 0 .87 0 .29-.17.58.34.88 0 .3.12.6-.11.9 0a1.27 1.27 0 0 0 .92 0 7.25 7.25 0 0 0 .93 0 1.18 1.18 0 0 0 1 .06c.32-.06.64.51 1 0 .32.24.64.37 1 0 .32 0 .64-.31 1 0a1.17 1.17 0 0 1 1 0c.32.12.64-.13.95 0a4.33 4.33 0 0 1 1 0 .78.78 0 0 1 .94 0c.31.34.62-.28.93-.07s.61-.17.91-.09a1.25 1.25 0 0 1 .9-.13.91.91 0 0 0 .88-.17c.29-.34.57 0 .86-.2a3.91 3.91 0 0 1 .83-.25c.28.07.55-.21.82-.3s.52.11.78-.35c.26-.16.51-.4.76-.4.26-.39.53-.24.8-.45a1.29 1.29 0 0 0 .82-.44c.28 0 .57-.37.85-.43.29-.46.58-.62.87-.42.29-.11.59-.41.89-.39a2.93 2.93 0 0 1 .9-.39 3.25 3.25 0 0 0 .93-.36c.31-.12.62 0 .94-.35a2.63 2.63 0 0 0 .95-.33c.32.14.64-.13 1-.31.32 0 .65-.3 1-.29s.66-.33 1-.26a.9.9 0 0 1 1-.24c.33.27.67.23 1-.22.33.19.66-.26 1-.19.33.27.66-.24 1-.16a.65.65 0 0 1 1-.14c.33.31.67-.18 1-.1a1.08 1.08 0 0 1 1-.08c.33-.3.66-.08 1 0a1.18 1.18 0 0 0 1 0c.33.29.66 0 1 0s.65-.1 1 .06c.32 0 .64.17 1 .09.32.14.63-.22.95.13a2.4 2.4 0 0 1 .94.17c.31-.23.61.13.92.21a18.76 18.76 0 0 1 2.66.86c6 2.49 17 2.22 24.82.68.6-.12 1.26-.22 1.93-.32a21.69 21.69 0 0 0 3.4-.69 10.4 10.4 0 0 0 1.84-.9c.41-.22.81-.45 1.24-.65a6.54 6.54 0 0 1 .66-.28c.22-.19.45 0 .69-.22a4 4 0 0 0 .74-.14.49.49 0 0 0 .63 0c.22-.2.45-.08.7 0a1 1 0 0 1 .75.07 6.88 6.88 0 0 0 .81.11l.85.17a72.75 72.75 0 0 1 10 3.18l.61.23c.18 0 .33.13.46.17s.54.35.81.29c.26.26.53 0 .79.29.26 0 .52 0 .78.29a1.45 1.45 0 0 1 .78.29 7.62 7.62 0 0 1 .91.33 1.36 1.36 0 0 0 .9.34c.3.19.6 0 .9.32.3 0 .6.26.9.32.29.27.59.23.89.31a1 1 0 0 0 .9.3c.3.46.6.57.91.28a1.07 1.07 0 0 1 .91.27c.3.17.61 0 .92.25s.62.13.93.24c.32-.32.63 0 1 .22a6.52 6.52 0 0 0 1 .19c.32.3.65.5 1 .17.3.32.59-.36.89.14a1.12 1.12 0 0 1 .9.13c.3.48.6.27.9.12s.6 0 .9.11a1.19 1.19 0 0 0 .9.1c.3-.13.6-.25.9.09a1.26 1.26 0 0 1 .91.08c.3.51.6 0 .91.07.3-.66.61.1.91.06.31.12.61-.1.92 0 .31.55.62.14.92 0 .31.21.62 0 .93 0a1 1 0 0 1 .94 0c.31.3.63.18.94 0a1.52 1.52 0 0 0 .87 0c.29 0 .58-.34.87 0s.59-.07.88 0c.3-.47.59.13.89 0 .3 0 .6-.05.9 0a1.13 1.13 0 0 0 .9 0 1 1 0 0 1 .91 0c.31 0 .61-.2.92 0a1.33 1.33 0 0 0 .92-.06c.31-.11.62.16.93-.06s.62-.16.94-.08c.31-.08.62.1.93-.08.32 0 .63-.23.94-.08.32-.07.63 0 .95-.1s.63.28 1-.1a7.52 7.52 0 0 0 .94-.11c.32.08.64-.53.95-.12.32-.34.64 0 1-.12s.63.29.95-.13c.32.11.63-.45 1-.14.3-.32.6 0 .9-.15a1.36 1.36 0 0 0 .89-.18c.3-.38.6.11.89-.21.3 0 .59-.16.89-.24a4.15 4.15 0 0 0 .88-.25.74.74 0 0 0 .87-.27c.29-.32.58.09.87-.27.29.16.58-.15.86-.29a2 2 0 0 0 .86-.28 1.73 1.73 0 0 0 .86-.29c.28-.05.57.08.86-.28s.57.1.86-.28.58.11.87-.26a1.22 1.22 0 0 1 .88-.26c.3 0 .59-.24.89-.23a7.61 7.61 0 0 0 .89-.21 1 1 0 0 1 .89-.19c.3-.54.6-.11.91-.15.3-.45.6 0 .91-.12.3.21.61 0 .92-.08a1.09 1.09 0 0 0 1-.07c.33-.29.65.11 1 0s.65-.06 1 0a.8.8 0 0 0 1 0 3.51 3.51 0 0 0 1 0 8 8 0 0 1 1 0c.33.13.65-.07 1 0a.76.76 0 0 1 1 0c.33 0 .66-.19 1 0 .33-.14.66.25 1 0 .32 0 .65.1 1 0a1 1 0 0 0 1 0 .81.81 0 0 0 1 0c.32 0 .65-.26 1 0s.66 0 1 0c.33-.19.66 0 1 0s.65-.16 1 0c.33 0 .65-.2 1 0a3.22 3.22 0 0 1 1 0c.33-.14.65 0 1 0s.65.16 1 0a1.35 1.35 0 0 1 1 0h1l2.91.07c2.75.06 5.56.13 8.36.17h.93c.31 0 .62.46.93 0 .31 0 .62.25.93 0s.61.15.92 0c.31.08.62-.12.92 0 0 .27.22.39.43 0 .22 0 .44.26.44 0a1.7 1.7 0 0 1 .95 0 1.32 1.32 0 0 0 .94 0c.32.27.64-.2.95 0 .32-.28.64-.07 1 0h1.9a1.06 1.06 0 0 1 1 0c.32.12.63-.09.95 0s.63.38 1 0c.31 0 .63.39 1 0 .31-.2.63.26.94 0a1.25 1.25 0 0 0 1 0c.33 0 .65-.15 1 0a3.86 3.86 0 0 1 1 0 1.44 1.44 0 0 1 1 0 4.41 4.41 0 0 0 1 0c.32-.23.63-.06 1 0s.63-.17.94 0 .63-.26.94 0 .63 0 .94 0a1.1 1.1 0 0 1 .92-.06 1.93 1.93 0 0 1 .92-.07c.31-.07.61.17.91-.07.3.19.61-.66.91-.08.29-.12.59.22.89-.07.3.35.59.36.89-.08s.58.45.87-.08c.33-.16.66.12 1-.09a.69.69 0 0 0 1-.09 2.05 2.05 0 0 1 1-.08c.33-.19.66.09 1-.07s.65.12 1-.07c.33 0 .66.12 1-.07a2 2 0 0 0 1-.06c.33 0 .66.34 1-.06.33.26.66-.23 1 0a.8.8 0 0 1 1 0 1.76 1.76 0 0 0 1 0c.33.11.66-.17 1 0a.86.86 0 0 0 1 0 3 3 0 0 0 1 0 2.36 2.36 0 0 1 1 0 .66.66 0 0 0 1 0h1c.34 0 .66-.31 1 0a1.85 1.85 0 0 0 1 0c.33 0 .66-.3 1 0 .33-.11.66.22 1 0 .33 0 .66-.16 1 0s.66-.25 1 0a1.85 1.85 0 0 1 1 0c.33.12.66-.05 1 0a1.53 1.53 0 0 1 1 0c.33-.07.66.17 1 0 .33.06.66.3 1 0 .33-.07.66.08 1 0a2.69 2.69 0 0 1 1 0c.33.13.66-.08 1 0s.66.32 1 0a.6.6 0 0 0 1 0c.33-.07.66.25 1 0s.66.13 1 0c.32-.27.65-.13 1 0s.65 0 1 0c.32-.15.65.19 1 0a1 1 0 0 0 1 0 1.78 1.78 0 0 0 1 0c.33.5.65.06 1 0s.65-.36 1 0c.33-.19.65.29 1 0 .32 0 .63.18.94 0 .32.12.63-.32.95 0 .31.09.63-.27.94 0 .32-.05.63 0 1 0 .32.19.63 0 .95 0h1c.37 0 .64-.3.95 0a3.43 3.43 0 0 1 1 0h1c.32.33.64-.18 1 0h1a1.71 1.71 0 0 1 1 0c.32.19.64-.31 1 0a2.39 2.39 0 0 1 1 0 2.81 2.81 0 0 1 1 0c.31.14.63-.07.95 0a1.33 1.33 0 0 1 1 0 1.54 1.54 0 0 0 .95 0c.32.33.64.14 1 0a.54.54 0 0 1 1 0c.32-.31.64.28.95 0 .32.11.64-.31 1 0a1.19 1.19 0 0 1 .81 0c.27 0 .54-.13.81 0 .28-.44.55-.51.83 0 .28-.55.55.24.83 0 .28.33.56 0 .84 0a.74.74 0 0 1 .85 0c.31-.11.61-.36.92 0 .31.19.62-.12.93 0 .31-.08.62-.23.94 0a.77.77 0 0 0 .94 0 2.34 2.34 0 0 0 .95 0 2 2 0 0 0 1 0c.31-.16.63.16 1 0 .32.16.64-.32 1 0a5.26 5.26 0 0 0 1 0c.32-.06.64-.21 1 0 .32 0 .64-.11 1 0s.64.3 1 0c.32-.12.64-.31 1 0s.64-.17 1 0a1.44 1.44 0 0 1 1 0 1.11 1.11 0 0 1 1-.06 2 2 0 0 0 1-.06 1.2 1.2 0 0 1 1-.07c.32 0 .63-.16 1-.08.31-.16.62 0 .94-.08s.62.14.93-.1c.31 0 .62-.11.92-.11.31.26.61.15.92-.11.3.2.6-.07.9-.13.28.38.54.1.8-.13s.51-.12.75-.18c.25-.34.48-.08.72-.19a1.25 1.25 0 0 0 .7-.22c.23.3.47-.19.7-.23a1.36 1.36 0 0 0 .64-.2.45.45 0 0 0 .65-.21c.22-.09.45 0 .68-.19s.46-.31.71-.18a1.92 1.92 0 0 1 .74-.15.57.57 0 0 0 .86-.13c.29-.19.58-.05.88-.11s.59 0 .88-.08.6 0 .9 0a2.54 2.54 0 0 0 .91 0c.3.25.6.14.91 0 .3.23.61.07.92 0 .31-.22.61 0 .92 0a1.25 1.25 0 0 0 .93 0c.31-.34.62-.22.93 0a1.45 1.45 0 0 1 .92 0 1.3 1.3 0 0 1 .93 0c.31-.33.62.19.92.06.29.24.58 0 .87.05s.57.35.85 0c.28 0 .56.44.84 0 .28 0 .55.18.82 0s.55.32.82 0a1 1 0 0 0 .81 0c.26.36.53-.1.79 0 0 .25.11-.15.29 0 .19-.3.45.2.76 0a1.49 1.49 0 0 0 1.08 0 1.55 1.55 0 0 0 1.23 0 3.9 3.9 0 0 1 1.23 0c.4-.4.77.16 1.08 0 .32 0 .58-.27.76 0h.29c.31-.13.62.16.92 0a2.64 2.64 0 0 1 .93 0c.3 0 .61.23.92 0 .31 0 .61-.42.92 0 .31 0 .62-.17.93 0a2.37 2.37 0 0 1 .92 0c.31-.06.61.3.92 0 .31.11.62-.17.92 0 .31-.08.62.18.93 0 .31-.36.61.06.92 0 .31-.29.62.42.92 0a1.48 1.48 0 0 0 .93 0c.3 0 .61-.4.92 0 .23-.24.46.1.7 0s.48.27.74 0 .51-.06.77 0 .53 0 .8-.06.59.28.89-.07c.3 0 .61 0 .91-.06.31.25.61 0 .92 0a1.69 1.69 0 0 0 .92 0c.31-.15.61 0 .91 0 .3-.54.6-.07.9.06.3.28.59.42.88.1.28.4.56-.2.84.17.28-.06.54-.49.8.23.3 0 .58.25.84.35.27-.09.51-.22.75.41.24-.24.46.23.68.46a3.23 3.23 0 0 0 .64.48c.2.2.4.56.6.5l.59.49a7.72 7.72 0 0 0 2.7 1.51c3.85 1.11 8.82 1.08 13.21 1H973.47a7.46 7.46 0 0 0 1 0 1.42 1.42 0 0 0 .95-.07 1 1 0 0 0 1-.09c.32 0 .63.27.95-.1.31.11.63-.28.94-.12a2.08 2.08 0 0 0 1-.12 1.33 1.33 0 0 1 .95-.14c.31 0 .63-.43 1-.15.31 0 .63-.43.95-.16.32-.13.64.13 1-.15s.64-.12 1-.17c0-.14.33-.14.66-.11.34-.26.67 0 .67-.11.3-.2.61 0 .91-.14a.83.83 0 0 0 .92-.12c.3-.27.61.29.91-.11.31.22.61.45.91-.09.31-.13.61.15.91-.09s.6-.39.9-.07.57-.15.87-.08c.29-.3.58.2.87-.08a3.25 3.25 0 0 1 .88-.09 1.26 1.26 0 0 1 .87-.1 1.14 1.14 0 0 0 .88-.11.81.81 0 0 1 .87-.14c.29.12.57-.11.86-.15.1.21.2-.15.32-.14s.24.14.38-.24.29-.3.45-.3a.59.59 0 0 1 .55-.27c.2-.14.41-.32.65-.19a4.37 4.37 0 0 0 .86-.13 1.09 1.09 0 0 0 .88-.08c.29-.14.59.14.89 0 .3.25.6 0 .9 0 .3.3.6 0 .9 0a.82.82 0 0 1 .91 0c.3.38.61.15.91.06.3.28.61.13.91.08s.61-.24.91.09.6 0 .9.11c.3-.35.6.11.9.12.3.21.59.35.89.13.29.63.59.22.87.13.29-.46.58.22.87.13a.71.71 0 0 1 .64.09c.22 0 .43-.36.63.1.21 0 .42.21.62.09s.6.4.89.13c.3.52.6.42.9.12.29.41.59.53.89.13a1.72 1.72 0 0 0 .89.13 3.09 3.09 0 0 1 .89.13c.29.1.59 0 .88.13s.6.45.89.13a1.06 1.06 0 0 1 .89.14c.29.51.59.69.88.13.3-.12.59.11.89.13a1.31 1.31 0 0 0 .88.13c.31.17.62-.09.93.14a1.24 1.24 0 0 1 .93.14c.31-.29.62-.23.94.13.31-.26.62.28.93.14a1.22 1.22 0 0 1 .94.14c.31 0 .63.21.94.14s.63.13.94.14c.31.25.63.11.94.13s.63.44 1 .14a2.77 2.77 0 0 0 .94.13c.32-.3.64.21 1 .14a2.11 2.11 0 0 0 1 .13c.32.1.64-.13.95.13.32 0 .64-.18 1 .14.31 0 .63.26 1 .12.32.05.64.29 1 .13a1 1 0 0 1 1 .13 1.47 1.47 0 0 0 1 .12c.32-.29.64.36 1 .13s.64.53 1 .12c.32.23.64 0 1 .11s.64-.25 1 .12c.32-.15.65 0 1 .11a3.5 3.5 0 0 0 1 .11l1 .11c.32.16.64-.08 1 .11.32-.33.65.16 1 .1.32-.32.64-.13 1 .1.32.05.64-.06 1 .09.23 0 .46.18.69.07s.48 0 .73.09c.24-.26.5 0 .75.1s.52.34.78.11a.59.59 0 0 1 .8.11 1.19 1.19 0 0 1 .82.12 1 1 0 0 1 1 .14c.32.07.64-.05 1 .13a1.34 1.34 0 0 0 1 .14c.34.62.67-.07 1 .13a1.49 1.49 0 0 1 1 .12 1.89 1.89 0 0 0 1 .11 2.76 2.76 0 0 1 1 .1c.34-.45.68.24 1 .08a2.51 2.51 0 0 1 1 0c.34.07.68.29 1 0s.67-.06 1 0c.33.27.66.39 1 0s.65.15 1 0c.32 0 .63-.33.94-.09s.62-.13.92-.13c.3-.25.6-.07.89-.16s.57.09.85-.21c.28-.68.55 0 .82-.26a.78.78 0 0 0 .78-.31c.26-.21.52-.14.78-.36a5.67 5.67 0 0 0 .78-.39c.26.15.52-.53.78-.41.25-.4.51-.3.77-.44s.52-.3.77-.45.52-.46.77-.48a2 2 0 0 0 .77-.48c.25-.08.51-.4.76-.51l.76-.51c.25-.11.5 0 .75-.52s.51-.37.76-.52a4.92 4.92 0 0 1 .75-.53 3.13 3.13 0 0 1 .74-.52c.26-.21.52-.57.78-.55s.51-.46.77-.55a1.65 1.65 0 0 0 .79-.54c.26-.2.52-.36.79-.54a52.63 52.63 0 0 1 5.67-3.45l.84-.42c.28-.17.56 0 .85-.39s.57-.14.85-.36.58 0 .87-.33c.29.13.58-.35.87-.29 0 0 .16 0 .39-.24.24.08.55-.16.86-.52.32.12.63-.16.86-.52s.39-.16.39-.23c0 .39.38.28.38.07.28.11.56 0 .83.17a1.9 1.9 0 0 1 .83.19 1.09 1.09 0 0 0 .83.21.84.84 0 0 0 .82.24c.27-.07.54.16.81.25s.54 0 .81.27c.27.07.54.55.8.29s.54.23.8.3c.27-.21.53-.07.79.33.26.09.52.55.78.35.31.21.62 0 .93.26.31.5.62-.44.92.25.31.26.62 0 .93.24a1.07 1.07 0 0 0 .94.23l.93.21a81.38 81.38 0 0 0 12.26 1.84 62.81 62.81 0 0 0 6.59 0c2.19-.07 4.43-.14 6.63 0a2.49 2.49 0 0 1 .94.08c.32-.13.63.06.94.1s.62 0 .93.13.61.09.91.18c.25-.1.48.1.71.17s.45.4.67.2c.22.22.43.11.64.21.2-.24.4.06.6.2s.39.43.59.17c.2.32.4 0 .6.15a.56.56 0 0 0 .63.1c.3.22.6 0 .89.08s.59.27.89 0a1.59 1.59 0 0 0 .89 0c.3.11.59-.14.89 0 .3-.4.6 0 .89 0s.6-.18.9-.07.6 0 .9-.09.61 0 .91-.1a.74.74 0 0 0 .91-.12 7.27 7.27 0 0 0 .92-.13c.31.21.62 0 .93-.14s.62 0 .93-.14a1.5 1.5 0 0 1 .92-.14c.3-.22.61.25.91-.14a.83.83 0 0 0 .93-.13c.31.34.62-.1.93-.13s.62.08.93-.11c.31.12.62-.25.93-.09s.63 0 .94-.07c.31.36.63-.23.94 0 .31-.14.63 0 .94 0 .31.14.63-.3.94 0s.64-.07 1 0 .63-.23.94 0 .63 0 1 .07.62-.1.93.08.62.28.93.09c.31.08.62-.22.92.1.31-.11.62.15.92.11a1 1 0 0 0 .91.11c.3 0 .6.4.9.11.27.31.54-.19.81.11a4.48 4.48 0 0 1 .81.1c.27 0 .54.11.82.1s.54.21.82.09c.27-.39.55.36.82.09.36 0 .71.22 1.06.09s.7.1 1 .08c.35.18.69 0 1 0a3.55 3.55 0 0 1 1 0h1a64.66 64.66 0 0 0 9.63-.69c.31 0 .61-.07.92-.14l.9-.15.9-.15a1.69 1.69 0 0 1 .89-.17c.3-.12.59 0 .89-.17s.58.09.87-.17a2.1 2.1 0 0 1 .87-.19 1.43 1.43 0 0 1 .86-.18c.29-.51.57-.12.86-.19.28-.28.56-.5.85-.2.28-.11.56-.44.85-.2.28-.08.57 0 .86-.22s.57 0 .86-.23.57-.17.86-.24c.29-.37.58-.19.87-.24s.57 0 .86-.25c.29.23.57.25.86-.25a1.19 1.19 0 0 1 .85-.26c.3-.19.61.12.91-.27.3.24.6-.23.91-.26a1.29 1.29 0 0 0 .91-.27c.31-.11.61 0 .92-.26a7.86 7.86 0 0 1 .92-.25 2 2 0 0 1 .92-.24 2.45 2.45 0 0 0 .93-.23c.31-.57.62-1 .93-.22.31.16.62-1 .93-.21.31-.64.62 1 .93-.19.32 0 .63-.83.94-.16.31-.65.62.15.94-.15.31.59.62-.25.94-.13a2 2 0 0 1 .94-.09c.31.09.62-.17.94-.08a.78.78 0 0 1 .83 0c.28 0 .56.15.84 0 .28.1.56-.11.84 0 .28-.32.56-.45.84 0h.83a1.67 1.67 0 0 1 .83 0c.28.32.55-.08.82 0 .27-.18.54-.06.81 0 .27-.13.54.12.81 0 .27.27.54 0 .81 0 .28-.47.55-.16.82 0s.54.27.82 0c.27.37.54.28.81 0 .27 0 .54.43.82 0a.58.58 0 0 0 .8 0c.3-.24.59 0 .87-.08.28.31.56 0 .84-.09s.55-.42.82-.1a.8.8 0 0 0 .81-.1c.27.15.53-.19.79-.1a1.17 1.17 0 0 0 .91-.12c.29 0 .59.06.88-.1.3 0 .59.13.88-.1a2.22 2.22 0 0 1 .88-.08c.29 0 .57 0 .86-.06a18.62 18.62 0 0 1 6.15.56c.3.09.61.43.92.28a2.11 2.11 0 0 1 .94.34c.32.34.64-.08 1 .41a1 1 0 0 1 1 .49c.2.14.38.73.56.3.18-.08.35.43.5.29s.32.06.46.26a7.42 7.42 0 0 0 .74.42c.23-.35.44-.16.65.32.22.08.43.5.65.21.23.26.47.11.74.09.26.16.56-.1.89 0a1.92 1.92 0 0 0 1.14-.16c.29-.52.58.26.87-.17.29.18.58-.39.87-.21.29-.08.58.2.87-.23.29 0 .58-.64.87-.26a5.92 5.92 0 0 0 .87-.29c.29-.1.58 0 .87-.3a5.15 5.15 0 0 0 .87-.33c.29-.19.58-.4.87-.34s.58-.38.86-.36.58-.46.87-.36.57-.36.86-.38a.85.85 0 0 1 .86-.37c.28-.06.57-.33.85-.38.27-.32.53-.45.8-.35.27-.26.54-.46.81-.36s.54-.19.81-.35.54-.21.81-.34c.27-.44.54 0 .81-.34s.55-.08.82-.32c.27 0 .54-.37.81-.31.27-.21.54-.49.81-.3s.63-.1.94-.32c.32-.07.62-.5.93-.3.31 0 .61-.25.91-.27a7.49 7.49 0 0 1 .9-.24 24.22 24.22 0 0 1 3.57-.61l.9-.05a1 1 0 0 1 .93 0c.31 0 .62-.23.94 0 .31 0 .64.27 1 .08a1.41 1.41 0 0 0 1 .13c.28-.24.56-.48.85.13.28 1.51.57.15.87.16.29-.24.58.83.88.17.29 1.1.59-.1.89.19a2 2 0 0 1 .9.2 1.15 1.15 0 0 1 .92.23 1.56 1.56 0 0 0 .92.23c.31-.16.62 0 .93.26a3.11 3.11 0 0 1 .94.27c.31.25.62.16.94.28a1.09 1.09 0 0 0 .94.3 2.71 2.71 0 0 0 .95.31c.32.15.63.19 1 .33a2 2 0 0 1 1 .34 4.56 4.56 0 0 1 1 .35c.31.22.63.19.94.36s.63.17.94.38a.88.88 0 0 0 .94.38c.31 0 .62.41.93.4s.62.16.92.41c.31-.43.62.47.92.41.3.28.6-.11.9.43.3.3.6-.1.9.43.29-.17.59.28.88.45.29.9.58.88.87.45.28.66.57.62.85.46.28.38.56 1 .84.46.27-.19.55-.09.82.47 0 .07.07-.16.19.13.54.66 1 1 1.38 1s.69.28.94.66c.25-.13.44 0 .58.39.14.17.23.25.3.19.06.26.09.12.11.06a1.69 1.69 0 0 0 .7.15c.25-.31.52-.32.79 0 .27 0 .55-.38.84 0 .3-.29.6 0 .9-.12s.63.17.94-.19c.32-.17.65-.07 1-.24s.66-.2 1-.29c.33-.29.67 0 1-.32.33-.08.66-.27 1-.33.33.16.66.24 1-.35.32-.43.64 0 1-.34s.57.16.85-.31a1.87 1.87 0 0 1 .82-.3c.27-.09.53-.28.78-.26a.54.54 0 0 0 .73-.23.68.68 0 0 1 .9-.27c.3-.19.6-.14.9-.27.29 0 .59-.23.89-.29a.91.91 0 0 0 .88-.28l.88-.3.87-.29a2.46 2.46 0 0 0 .86-.3c.29.06.58-.3.86-.3.29-.36.57-.06.86-.3a4.7 4.7 0 0 0 .84-.3c.29.09.57-.37.85-.3a3.26 3.26 0 0 0 .89-.31c.29.12.59-.31.88-.32a2 2 0 0 0 .88-.31.71.71 0 0 1 .89-.3c.29-.3.58-.13.88-.3a3.33 3.33 0 0 1 .87-.3c.3-.2.59-.38.88-.29.3-.36.59-.2.88-.29a1.91 1.91 0 0 1 .89-.27 2.42 2.42 0 0 1 .88-.27c.3-.1.59-.18.89-.26a1.57 1.57 0 0 1 .89-.25c.29.35.59-.13.89-.24a3 3 0 0 1 .9-.22c.3.17.6.29.91-.22s.6-.43.91-.2a.81.81 0 0 0 .92-.19c.3-.19.61-.52.92-.17s.62-.2.94-.16c.31.22.63-.43.94-.14.32-.09.64.19 1-.13.31.12.64-.62 1-.11s.65.23 1-.09c.33.09.66-.23 1-.07a.86.86 0 0 0 1 0h.44c.22.36.44.1.44 0 .29-.11.57.33.86 0 .29-.16.57.42.86 0 .29.14.58 0 .86 0 .29.29.58-.47.87 0 .28-.47.57-.2.85.11.29-.23.57-.34.86.18a1.38 1.38 0 0 1 .84.26 1.22 1.22 0 0 0 .81.32c.27.37.54.12.8.38.26.68.52.08.78.42a3.79 3.79 0 0 1 .76.45c.75.46 1.49 1 2.21 1.46a19.19 19.19 0 0 0 6.44 3.32 28.41 28.41 0 0 0 4.29.61h.87a.77.77 0 0 0 .88 0 3.78 3.78 0 0 1 .89 0c.3.11.6 0 .9 0a2.21 2.21 0 0 1 .92-.07c.31.06.63.25.94-.08a1.47 1.47 0 0 0 1-.12c.32.33.65-.05 1-.14s.66-.29 1-.16c.3-.07.6.08.9-.22s.6-.8.9-.22a6 6 0 0 1 .9-.23c.3 0 .6-.28.9-.24.3-.29.6-.48.9-.24a1.69 1.69 0 0 1 .9-.24c.29.13.59-.25.89-.25.3.26.6-.38.9-.26a1.18 1.18 0 0 1 .9-.27c.3.25.59 0 .89-.27a1 1 0 0 1 .9-.27 2.09 2.09 0 0 0 .89-.28 1.37 1.37 0 0 0 .89-.29c.3-.18.59.09.89-.29a3.89 3.89 0 0 1 .89-.3c.29 0 .59-.39.88-.3a3.15 3.15 0 0 0 .89-.31c.29.25.59-.07.88-.31.29 0 .59.06.88-.32a1 1 0 0 0 .88-.32c.29-.25.58-.13.87-.33a1.69 1.69 0 0 1 .92-.31 1.2 1.2 0 0 0 .92-.31c.31 0 .61-.27.92-.29a1 1 0 0 1 .93-.29 3.27 3.27 0 0 0 .93-.27c.31.2.62-.43.93-.26.31 0 .62-.21.93-.25a1.4 1.4 0 0 1 .94-.25c.31.08.62-.15.94-.23.31-.25.63-.06.94-.22s.63-.41.94-.21a1.5 1.5 0 0 0 1-.2c.31-.16.63 0 1-.19s.63-.06.94-.18a3.24 3.24 0 0 1 1-.17c.31-.28.63-.17 1-.16a1.39 1.39 0 0 0 1-.14c.32-.27.64.45 1-.14a1 1 0 0 0 .95-.13c.32 0 .64-.31 1-.11.32-.24.64.19 1-.11a.88.88 0 0 0 .71-.13c.24 0 .48.4.72-.16.25-.24.49-.51.74-.17.24-.13.49.2.74-.19a.5.5 0 0 1 .74-.19c.24.26.49-.14.73-.2.27-.22.54.1.81-.21.27.38.54-.79.81-.21.27-.78.54-.41.82-.2s.54-.48.82-.19.54.36.82-.17a1.21 1.21 0 0 0 .82-.15c.32.12.63.46 1-.12.32 0 .63.12 1-.08.31 0 .63-.4.94 0 .32.12.63.36.95 0 .31 0 .62-.23.94.06.31-.13.63.05.94.11.31-.26.62.13.94.13s.62.27.93.16c.31.21.62-.21.93.19.31.12.62 0 .93.21s.62-.05.93.23c.31.07.62.16.92.25.31.38.62.18.92.25.31-.14.61.12.92.26.3-.15.61.24.91.27a.52.52 0 0 1 .69.2c.23.07.46-.14.68.19s.46.22.68.2.45.32.68.18c.34.37.68-.07 1 .27a2.27 2.27 0 0 1 1 .26c.34.19.67.39 1 .24.34.07.67-.1 1 .24a5.22 5.22 0 0 0 1 .22c.33.34.67 0 1 .22s.67-.07 1 .2c.34 0 .67.29 1 .2l1 .18c11 2 21.48 2.3 31.39 2.3h2.63a.84.84 0 0 1 .89 0 1 1 0 0 0 .88-.05c.3-.07.59.11.89-.07s.59.1.89-.06c.29.09.59-.16.89-.08s.59-.1.88-.08a1.08 1.08 0 0 0 .89-.08c.29.17.59-.15.88-.09.3-.16.59.1.88-.09.29.08.59-.39.88-.09.3-.18.6.35.9-.09a.73.73 0 0 1 .91-.09c.3-.14.61 0 .91-.09s.61-.22.91-.09c.31-.28.61.14.92-.08a1.94 1.94 0 0 0 .92-.08c.3 0 .61-.27.91-.07a2.86 2.86 0 0 1 .92-.06c.31.17.61-.14.92 0a1.76 1.76 0 0 0 .91 0c.31 0 .61-.06.92 0 .3-.18.61-.45.91 0 .3 0 .61-.17.91 0s.61-.14.91 0c.3.39.6.25.9 0s.62 0 .93 0c.31-.23.62.09.93.06a2.39 2.39 0 0 1 .92.07c.31.18.62.37.93.07s.62 0 .93.09c.31-.24.62.33.93.1s.62.53.93.1c.31-.65.62.62.93.11.31.27.61.06.92.12a1.88 1.88 0 0 1 .93.12c.3.57.61-.18.92.13l.92.13c.3 0 .61-.28.91.13.31 0 .61.2.92.13a2.43 2.43 0 0 1 .91.14c.3.69.61-.35.92.13s.62.28.92.14.62 0 .93.13.62-.25.94.13.62-.16.93.13.62-.18.94.12c.31-.07.62.43.93.12.32.37.63.15.94.11s.63-.29.94.1a.88.88 0 0 1 .94.1c.31-.18.63.26.94.08.31.1.63-.19.94.08a1.89 1.89 0 0 1 .94.06c.31-.26.62.12.93.06.32-.33.63.4.94 0s.62 0 .93 0a1.83 1.83 0 0 1 .93 0c.32.1.62 0 .93 0s.6.15.89 0 .6-.36.9-.08c.3-.27.59.12.89-.11s.6.22.89-.14c.3.51.6-.16.9-.16s.59 0 .89-.19c.3-.41.59 0 .89-.2.29.2.59-.17.88-.21.3-.41.59 0 .88-.22.3-.71.59 0 .88-.23a1.28 1.28 0 0 0 .88-.23c.29 0 .59.15.88-.22a2.36 2.36 0 0 0 .89-.21c.3-.08.6.42.9-.21.29.53.59-.18.89-.19.3-.58.6 0 .91-.17.3-.41.6.09.9-.14s.61.09.91-.12c.31 0 .61-.2.92-.08.31-.15.61 0 .92-.05.31.33.62 0 .93 0 .31-.22.62.27.93 0a2 2 0 0 0 .94.09c.31-.13.62.3.94.13.27.13.55.42.82.18.28.16.56-.18.83.22.27.16.55.51.82.26.27.28.55.21.82.29.27-.08.54.22.81.33s.54 0 .81.35a1.06 1.06 0 0 1 .81.38c.27.13.53.5.8.38.27.44.53-.23.8.4a4.82 4.82 0 0 0 .79.39c.28.12.56-.06.84.42.27.22.55 0 .81.41s.54.34.8.38.53-.18.79.35c.25-.07.51.36.76.31s.61.58.91.35c.31.08.62-.06.92.32s.62-.27.93.3c.31-.33.61.36.92.28.31.15.63 0 .94.25s.62.11.93.24c.31-.16.63.29.94.22.31.25.63.4.94.2a2.29 2.29 0 0 0 1 .18 1.27 1.27 0 0 1 .94.16 1.24 1.24 0 0 1 1 .15c.32 0 .64.28 1 .13a1.47 1.47 0 0 1 1 .12 1.15 1.15 0 0 1 1 .11 6.23 6.23 0 0 0 1 .09c.32-.12.64 0 1 .08a.91.91 0 0 1 1 .07c.32-.16.64.06 1 0s.64-.14 1 0c.32-.1.64.09 1 0 .32.27.64-.31 1 0 .32.65.64.13 1 0 .32.07.64-.19 1 0s.64-.17 1 0c.32-.29.64-.1 1 0s.64-.12 1 0c.32-.07.64 0 1 0s.64.36 1 0a1.44 1.44 0 0 1 1 0 2.53 2.53 0 0 1 1 0c.32-.2.63 0 1 0a8.18 8.18 0 0 0 1 0c.32-.21.65.25 1 0 .33.36.65-.27 1 0 .33.09.66-.21 1 0s.66-.06 1 0c.33.23.66-.19 1 0 .33-.16.66-.47 1 0 .33-.49.65-.05 1 0a2.94 2.94 0 0 0 1 0c.32.35.65.49 1 0 .33.06.65-.49 1 .06s.65-.31 1 .06.65.39 1 .07a1 1 0 0 1 1 .07 2.29 2.29 0 0 1 1 .08c.32.19.65.47 1 .08.32-.13.64.21 1 .08s.65 0 1 .09.64-.07 1 .09c.32-.16.64.28 1 .1.32.17.64-.08 1 .09s.64.34 1 .1a1.21 1.21 0 0 0 1 .1 1.73 1.73 0 0 0 1 .11c.32-.11.64.19 1 .1a1.23 1.23 0 0 0 1 .11c.32-.06.64.14 1 .1a6.15 6.15 0 0 0 .95.11 1.09 1.09 0 0 1 .94.11 1.07 1.07 0 0 1 1 .1 1 1 0 0 0 .9.11c.3 0 .6.17.9.1a.73.73 0 0 1 .9.1c.3-.64.61.49.91.1s.6-.16.9.1.61.33.91.1.6.21.9.1.64.32 1 .1c.32.4.64.59 1 .08.32 0 .64 0 1 .08s.64-.07 1 .06a.77.77 0 0 1 1 .06 1 1 0 0 0 1 0 1.41 1.41 0 0 1 1 0c.32.15.65.32 1 0 .33.41.65.1 1 0a1.35 1.35 0 0 0 1 0c.33.28.65.08 1 0s.65 0 1 0a.74.74 0 0 1 1 0c.33 0 .66-.07 1 0a5.34 5.34 0 0 0 1 0 8.06 8.06 0 0 1 1 0c.33.13.66-.15 1 0a3.58 3.58 0 0 0 1 0 8 8 0 0 1 1 0 2.12 2.12 0 0 0 1 0c.33 0 .65-.5 1 0 .32-.25.64.22 1 0 .32 0 .65.14 1 0a2.26 2.26 0 0 1 1 0c.3 0 .61.26.91 0 .31-.06.62.31.93 0 .3.05.61-.17.92 0 .31-.37.62-.46.93 0 .31-.23.62.3.93 0 .31-.13.62 0 .93 0a1.2 1.2 0 0 1 .93 0c.31.14.62-.3.93 0 .31-.45.62 0 .93 0 .31-.22.62.42.93 0a1.32 1.32 0 0 0 .92 0 .75.75 0 0 0 .92 0c.3-.17.59.12.89 0a.72.72 0 0 0 .89 0c.3.09.59-.23.89 0s.59.06.89 0 .59.13.89 0a1.59 1.59 0 0 0 .89 0c.3-.1.59-.31.89 0a2.66 2.66 0 0 0 .89 0c.3-.47.59-.09.89 0 .3-.08.59-.2.89 0 .29-.09.59 0 .89 0s.61.13.92 0c.31.08.62-.21.92 0a.73.73 0 0 0 .93 0c.31-.12.62.15.93 0a4.82 4.82 0 0 0 .93 0c.31 0 .62-.3.93 0a1.76 1.76 0 0 1 .94 0c.31.31.62.11.94 0s.62.28.93 0 .63.24.94 0a1.87 1.87 0 0 1 .94 0 1.67 1.67 0 0 1 .94 0 7.37 7.37 0 0 0 .94 0c.32-.16.63.09.94 0a2 2 0 0 1 .94 0 3.29 3.29 0 0 1 .94 0c.32 0 .63-.1.94 0s.63.19.94 0 .63.06.94 0a5.78 5.78 0 0 1 .93 0 1.1 1.1 0 0 1 .89 0 1.22 1.22 0 0 0 .88 0 1.92 1.92 0 0 1 .89 0 2.18 2.18 0 0 0 .88.06l.87.07a5.36 5.36 0 0 0 .88.09c.29 0 .58.12.87.09a1.12 1.12 0 0 1 .87.1 1.42 1.42 0 0 0 .86.1 1.1 1.1 0 0 1 .86.11c.32 0 .64.12 1 .11s.64.26.95.11a1 1 0 0 0 1 .11c.31-.12.62.2.94.09a1.49 1.49 0 0 0 .93.08 1.93 1.93 0 0 1 .92.07 5.62 5.62 0 0 1 .92 0c.31-.08.61.17.92 0s.61 0 .91 0c.31-.41.61-.25.92 0s.6-.22.91 0 .6-.09.91-.09c.28-.2.57.18.85-.1a3.62 3.62 0 0 1 .86-.11c.28-.19.56.09.84-.12a.92.92 0 0 0 .84-.13c.28-.58.56-.59.83-.14a.51.51 0 0 1 .83-.14c.28-.34.55.15.82-.14.28.12.55.37.82-.14.27.08.54-.55.81-.15.28.22.57-.52.85-.15s.58-.06.86-.16c.29-.35.58.18.87-.15.29-.13.58-.36.87-.14a.68.68 0 0 0 .87-.14c.3 0 .59.24.88-.13.3 0 .59-.09.89-.12.3-.54.59.16.89-.11.3 0 .6-.34.9-.1.3.06.6-.25.9-.08s.61.1.92-.07c.3.24.61 0 .91 0a2.64 2.64 0 0 0 .93 0c.31 0 .62.26.93 0s.57-.27.86 0c.28-.28.57.28.85 0 .29 0 .58-.12.86 0 .29.92.58.21.86 0s.58-.3.86 0c.29 0 .58-.24.87 0a1.07 1.07 0 0 1 .86 0c.31 0 .62.31.93 0 .32.29.63-.46.94 0s.63.16.94 0a5 5 0 0 1 .95 0c.31 0 .63-.17.94 0 .32 0 .63.3 1 0a2 2 0 0 0 1 0c.31-.2.63.08.94 0a2.76 2.76 0 0 0 .95 0 2.53 2.53 0 0 1 1 0c.31-.17.63 0 .94 0s.63.26.94 0a.71.71 0 0 1 .94 0c.31-.32.62-.17.93 0a1.44 1.44 0 0 0 .82-.06c.27 0 .54.14.81-.1s.53-.16.8-.12c.27-.29.54-.4.8-.15.27 0 .54-.26.81-.16a1.65 1.65 0 0 1 .82-.18c.27 0 .54-.18.81-.17s.55-.34.82-.17c.28-.55.56.39.84-.15.27.53.56 0 .84-.13.28.22.57-.16.85-.11s.58.57.87-.07c.28.48.56.1.83 0 .28-.52.56.26.84 0 .28.37.56.36.84 0 .27.26.55.62.83 0a.58.58 0 0 0 .83 0c.28.19.55.07.83 0s.55.18.82 0a1.42 1.42 0 0 1 .71 0c.23.08.47-.25.7 0 .24-.22.47.2.71 0s.47-.11.7 0a1.19 1.19 0 0 0 .7 0c.07.08.13 0 .2 0 .34.1.68-.33 1 0 .33.12.66 0 1 0a8 8 0 0 1 1 .05 1 1 0 0 1 1 .06c.32 0 .64-.22 1 .07a1 1 0 0 0 .94.09.93.93 0 0 1 .93.11 1.41 1.41 0 0 0 .92.11c.31.16.61 0 .92.13s.6 0 .91.14c.3-.13.6.07.91.15s.6 0 .9.16a4.16 4.16 0 0 1 .91.17c.3-.06.61.3.91.18.3.15.61 0 .92.18s.61 0 .92.19a.91.91 0 0 0 .93.2c.31.26.62.09.94.2a8.48 8.48 0 0 1 1 .2c0-.07.14-.15.29.06.15 0 .3.25.3.07a1.67 1.67 0 0 1 .91.19c.31.19.62-.08.92.17a6.12 6.12 0 0 0 .92.16c.31.35.62 0 .93.15a2.31 2.31 0 0 1 .93.13c.31 0 .62.29.93.13a1.36 1.36 0 0 1 .94.11c.31.15.62 0 .94.1a1 1 0 0 0 .94.09 1 1 0 0 0 1 .08c.32-.22.64.46 1 .07.32.2.64-.38 1 .07.32-.15.64.28 1 .05.33.19.65 0 1 0a2.32 2.32 0 0 1 1 0c.33.22.66.37 1 0 .32.06.65-.37 1 0 .33.17.66-.3 1 0 .34-.14.67.1 1 0s.67.19 1 0a2 2 0 0 1 1 0 5.79 5.79 0 0 0 1 0c.35.19.69 0 1 0h1a3.69 3.69 0 0 1 1 0c.31-.14.61.34.92 0 .3.08.61-.17.91 0s.61-.37.92 0c.31-.32.61.08.92 0 .3.15.61 0 .91 0a4 4 0 0 0 .92 0c.3.26.61-.14.92 0s.61.36.91 0c.31.41.61-.2.92 0s.61-.25.92 0 .61-.18.91 0 .61-.17.92 0h.34c.22 0 .52-.08.88 0s.77.29 1.2 0a2.53 2.53 0 0 1 1.31 0 3.22 3.22 0 0 0 1.2 0c.36.15.66-.07.88 0s.34.07.34 0a1.55 1.55 0 0 1 .8 0c.28 0 .55-.13.84 0 .28-.21.56 0 .85 0 .29-.24.58-.63.88.06a.81.81 0 0 1 .89.06c.31.27.61.13.92.08s.67.25 1 .08.67.29 1 .07c.34-.06.67.22 1 .07.33.33.66.07 1 .05.33.31.66.07 1 0a2 2 0 0 0 1 0 .74.74 0 0 0 .94 0 .63.63 0 0 0 .92 0c.3.25.59-.25.88-.09s.57.17.85-.13a.66.66 0 0 0 .8-.18c.09.57.24-.32.39-.27s.31-.41.43-.33c.29.32.48-.21.64-.46s.27.36.42-.17.4-.33.6-.1a1 1 0 0 1 .58-.1c.19-.16.37-.28.56-.08a1.15 1.15 0 0 1 .89-.15c.28-.15.57-.34.85-.14.28 0 .55-.13.83-.16s.54 0 .82-.18c.28.3.55-.29.84-.21a2.67 2.67 0 0 0 .86-.27c.3-.28.6-.24.92-.32s.59-.53.88-.34c.3-.12.59-.23.87-.36.29-.34.58-.29.86-.37.29.14.57-.26.85-.39 1.69-.79 3.34-1.66 5-2.56 2.16-1.14 4.39-2.31 6.77-3.35a202.18 202.18 0 0 1 22.87-8 4.77 4.77 0 0 1 .92-.27.91.91 0 0 1 .92-.27c.31.52.62.31.92-.28.31.25.61-.77.92-.27 0-.25.27-.29.54-.16a.52.52 0 0 0 .54-.16 1 1 0 0 0 .84-.23.36.36 0 0 0 .32 0v-121H-.01v106.41a.22.22 0 0 0 .2 1.05z" class="cls-1"/><path id="svg_3" d="M-.01 502.01h1920" class="cls-2"/><path id="svg_4" d="M-.01 452.01h1920" class="cls-2"/><path id="svg_5" d="M-.01 402.01h1920" class="cls-2"/><path id="svg_6" d="M-.01 352.01h1920" class="cls-2"/><path id="svg_7" d="M-.01 302.01h1920" class="cls-2"/><path id="svg_8" d="M-.01 252.01h1920" class="cls-2"/><path id="svg_9" d="M-.01 202.01h1920" class="cls-2"/><path id="svg_10" d="M-.01 152.01h1920" class="cls-2"/><path id="svg_11" d="M-.01 102.01h1920" class="cls-2"/><path id="svg_12" d="M-.01 52.01h1920" class="cls-2"/><path id="svg_13" d="M-.01 2.01h1920" class="cls-2"/><path id="svg_14" d="M1919.99 552.01H-.01" class="cls-2"/><path id="svg_15" d="M1919.99 552.01H-.01" class="cls-2"/><path id="svg_17" class="cls-4" d="M1800 588.35V0"/></g></svg>