<svg id="Réteg_1" data-name="Réteg 1" xmlns="http://www.w3.org/2000/svg" viewBox="0 0 1920 3240"><defs><style>.cls-1{fill:#4ad9d9;}.cls-2{fill:#f23c50;}.cls-3{fill:#fbb03b;}.cls-4{fill:#7e00ff;}</style></defs><title>Háttér</title><rect class="cls-1" x="0.5" width="1920" height="1080"/><path class="cls-2" d="M1920.5,0c-30.89,9.57-72.08,23.07-120,41-55,20.58-130.52,49.12-223,98-110.38,58.34-187.92,115.53-215,136-64.07,48.44-110.3,91.43-143,122-43,40.23-60,59.5-125,126-79.14,81-118.71,121.46-158,158-50.27,46.75-131.42,121.42-251,193-24.76,14.82-140.3,82.87-305,134-104.94,32.58-193.95,47.15-243,55-55,8.81-102,13.91-137,17h1920Z"/><rect class="cls-2" x="1.5" y="1079" width="1920" height="1080"/><path class="cls-3" d="M1921.5,1078c-30.89,9.57-72.08,23.07-120,41-55,20.58-130.52,49.12-223,98-110.38,58.34-187.92,115.53-215,136-64.07,48.44-110.3,91.43-143,122-43,40.23-60,59.5-125,126-79.14,81-118.71,121.46-158,158-50.27,46.75-131.42,121.42-251,193-24.76,14.82-140.3,82.87-305,134-104.94,32.58-193.95,47.15-243,55-55,8.81-102,13.91-137,17h1920Z"/><rect class="cls-3" x="-0.5" y="2158" width="1920" height="1080"/><path class="cls-4" d="M1919.5,2160c-30.89,9.57-72.08,23.07-120,41-55,20.58-130.52,49.12-223,98-110.38,58.34-187.92,115.53-215,136-64.07,48.44-110.3,91.43-143,122-43,40.23-60,59.5-125,126-79.14,81-118.71,121.46-158,158-50.27,46.75-131.42,121.42-251,193-24.76,14.82-140.3,82.87-305,134-104.94,32.58-193.95,47.15-243,55-55,8.81-102,13.91-137,17h1920Z"/></svg>